SplineFontDB: 3.0
FontName: Prata-Regular
FullName: Prata
FamilyName: Prata
Weight: Regular
Copyright: Copyright (c) 2011, Cyreal (www.cyreal.org)\nwith Reserved Font Name "Prata" and "Prata Regular".
Version: 1.001
ItalicAngle: 0
UnderlinePosition: -50
UnderlineWidth: 50
Ascent: 800
Descent: 200
LayerCount: 2
Layer: 0 1 "Back"  1
Layer: 1 1 "Fore"  0
XUID: [1021 230 1610532706 4744891]
FSType: 0
OS2Version: 3
OS2_WeightWidthSlopeOnly: 0
OS2_UseTypoMetrics: 1
CreationTime: 1314782940
ModificationTime: 1315161177
PfmFamily: 17
TTFWeight: 400
TTFWidth: 5
LineGap: 0
VLineGap: 0
Panose: 2 0 0 0 0 0 0 0 0 0
OS2TypoAscent: 993
OS2TypoAOffset: 0
OS2TypoDescent: -303
OS2TypoDOffset: 0
OS2TypoLinegap: 0
OS2WinAscent: 993
OS2WinAOffset: 0
OS2WinDescent: 303
OS2WinDOffset: 0
HheadAscent: 993
HheadAOffset: 0
HheadDescent: -303
HheadDOffset: 0
OS2SubXSize: 700
OS2SubYSize: 650
OS2SubXOff: 0
OS2SubYOff: 140
OS2SupXSize: 700
OS2SupYSize: 650
OS2SupXOff: 0
OS2SupYOff: 477
OS2StrikeYSize: 50
OS2StrikeYPos: 250
OS2Vendor: 'PYRS'
OS2CodePages: 00000003.00000000
OS2UnicodeRanges: 800000a7.00000043.00000000.00000000
Lookup: 258 0 0 "'kern' Horizontal Kerning in Latin lookup 0"  {"'kern' Horizontal Kerning in Latin lookup 0 per glyph data 0"  "'kern' Horizontal Kerning in Latin lookup 0 kerning class 1"  } ['kern' ('latn' <'dflt' > ) ]
MarkAttachClasses: 1
DEI: 91125
KernClass2: 67+ 58 "'kern' Horizontal Kerning in Latin lookup 0 kerning class 1" 
 20 quotedbl quotesingle
 8 asterisk
 28 hyphen uni00AD endash emdash
 40 comma period quotesinglbase quotedblbase
 5 slash
 4 zero
 9 backslash
 3 bar
 10 registered
 22 quoteleft quotedblleft
 24 quoteright quotedblright
 27 guillemotleft guilsinglleft
 29 guillemotright guilsinglright
 12 questiondown
 10 exclamdown
 5 seven
 4 nine
 9 ampersand
 50 A Agrave Aacute Acircumflex Atilde Adieresis Aring
 1 B
 10 C Ccedilla
 5 D Eth
 43 E OE AE Egrave Eacute Ecircumflex Edieresis
 1 F
 1 G
 41 H I M Igrave Iacute Icircumflex Idieresis
 1 J
 1 K

StartChar: exclam
Encoding: 33 33 3
Width: 256
GlyphClass: 2
Flags: HMW
LayerCount: 2
Fore
SplineSet
128 -10 m 128,-1,1
 103 -10 103 -10 86 7.5 c 128,-1,2
 69 25 69 25 69 50 c 128,-1,3
 69 75 69 75 86 91.5 c 128,-1,4
 103 108 103 108 128 108 c 128,-1,5
 153 108 153 108 170 91.5 c 128,-1,6
 187 75 187 75 187 50 c 128,-1,7
 187 25 187 25 170 7.5 c 128,-1,0
 153 -10 153 -10 128 -10 c 128,-1,1
140 165 m 1,8,-1
 116 165 l 1,9,10
 114 309 114 309 93.5 508.5 c 128,-1,11
 73 708 73 708 73 741.5 c 128,-1,12
 73 775 73 775 88 792.5 c 128,-1,13
 103 810 103 810 128 810 c 128,-1,14
 153 810 153 810 168 792.5 c 128,-1,15
 183 775 183 775 183 741 c 128,-1,16
 183 707 183 707 163 507.5 c 128,-1,17
 143 308 143 308 140 165 c 1,8,-1
EndSplineSet
EndChar

StartChar: numbersign
Encoding: 35 35 5
Width: 581
GlyphClass: 2
Flags: HMW
LayerCount: 2
Fore
SplineSet
69 383 m 1,0,-1
 69 428 l 1,1,-1
 180 428 l 1,2,-1
 234 715 l 1,3,-1
 280 715 l 1,4,-1
 225 428 l 1,5,-1
 380 428 l 1,6,-1
 434 715 l 1,7,-1
 480 715 l 1,8,-1
 425 428 l 1,9,-1
 541 428 l 1,10,-1
 541 383 l 1,11,-1
 417 383 l 1,12,-1
 393 255 l 1,13,-1
 508 255 l 1,14,-1
 508 210 l 1,15,-1
 384 210 l 1,16,-1
 345 0 l 1,17,-1
 300 0 l 1,18,-1
 339 210 l 1,19,-1
 184 210 l 1,20,-1
 145 0 l 1,21,-1
 100 0 l 1,22,-1
 139 210 l 1,23,-1
 36 210 l 1,24,-1
 36 255 l 1,25,-1
 148 255 l 1,26,-1
 172 383 l 1,27,-1
 69 383 l 1,0,-1
217 383 m 1,28,-1
 193 255 l 1,29,-1
 348 255 l 1,30,-1
 372 383 l 1,31,-1
 217 383 l 1,28,-1
EndSplineSet
EndChar

StartChar: ampersand
Encoding: 38 38 6
Width: 817
GlyphClass: 2
Flags: HMW
LayerCount: 2
Fore
SplineSet
442 289 m 0,0,1
 342 289 342 289 342 234 c 0,2,3
 342 206 342 206 374 206 c 128,-1,4
 406 206 406 206 419 233 c 1,5,6
 468 221 468 221 468 178 c 0,7,8
 468 154 468 154 450.5 136 c 128,-1,9
 433 118 433 118 401 118 c 128,-1,10
 369 118 369 118 344 151 c 128,-1,11
 319 184 319 184 319 238 c 128,-1,12
 319 292 319 292 362 334 c 128,-1,13
 405 376 405 376 479 376 c 0,14,15
 525 376 525 376 585 366.5 c 128,-1,16
 645 357 645 357 683.5 357 c 128,-1,17
 722 357 722 357 750.5 371.5 c 128,-1,18
 779 386 779 386 779 412 c 0,19,20
 779 441 779 441 747.5 441 c 128,-1,21
 716 441 716 441 703 413 c 1,22,23
 654 424 654 424 654 468 c 0,24,25
 654 492 654 492 671.5 510 c 128,-1,26
 689 528 689 528 721 528 c 128,-1,27
 753 528 753 528 776.5 498.5 c 128,-1,28
 800 469 800 469 800 423 c 0,29,30
 800 266 800 266 650 266 c 0,31,32
 607 266 607 266 579 270 c 1,33,34
 587 230 587 230 587 197 c 0,35,36
 587 94 587 94 529 37 c 128,-1,37
 471 -20 471 -20 372 -20 c 0,38,39
 210 -20 210 -20 130.5 44.5 c 128,-1,40
 51 109 51 109 51 216 c 128,-1,41
 51 323 51 323 127.5 380.5 c 128,-1,42
 204 438 204 438 328 444 c 1,43,-1
 328 447 l 1,44,45
 204 463 204 463 144.5 506.5 c 128,-1,46
 85 550 85 550 85 639.5 c 128,-1,47
 85 729 85 729 152.5 774.5 c 128,-1,48
 220 820 220 820 341 820 c 0,49,50
 422 820 422 820 476.5 781 c 128,-1,51
 531 742 531 742 531 677 c 0,52,53
 531 644 531 644 512.5 625.5 c 128,-1,54
 494 607 494 607 469.5 607 c 128,-1,55
 445 607 445 607 428 622 c 128,-1,56
 411 637 411 637 411 666 c 1,57,58
 453 685 453 685 453 729 c 0,59,60
 453 760 453 760 426 778.5 c 128,-1,61
 399 797 399 797 352 797 c 0,62,63
 284 797 284 797 243.5 757 c 128,-1,64
 203 717 203 717 203 650 c 0,65,66
 203 554 203 554 259.5 508.5 c 128,-1,67
 316 463 316 463 425 457 c 1,68,-1
 425 435 l 1,69,70
 188 420 188 420 188 218 c 0,71,72
 188 118 188 118 242.5 60.5 c 128,-1,73
 297 3 297 3 379 3 c 128,-1,74
 461 3 461 3 512 52.5 c 128,-1,75
 563 102 563 102 563 195 c 0,76,77
 563 232 563 232 552 274 c 1,78,79
 538 276 538 276 514.5 280.5 c 0,80,81
 470.111111111 289 470.111111111 289 442 289 c 0,0,1
EndSplineSet
EndChar

StartChar: quotesingle
Encoding: 39 39 7
Width: 162
GlyphClass: 2
Flags: HMW
LayerCount: 2
Fore
SplineSet
90 565 m 1,0,-1
 73 565 l 1,1,2
 68 631 68 631 56 691.5 c 128,-1,3
 44 752 44 752 44 769 c 0,4,5
 44 786 44 786 53.5 798 c 128,-1,6
 63 810 63 810 81 810 c 128,-1,7
 99 810 99 810 109 798 c 128,-1,8
 119 786 119 786 119 769 c 0,9,10
 119 752 119 752 107 691.5 c 128,-1,11
 95 631 95 631 90 565 c 1,0,-1
EndSplineSet
EndChar

StartChar: parenleft
Encoding: 40 40 8
Width: 344
GlyphClass: 2
Flags: HMW
LayerCount: 2
Fore
SplineSet
157 356 m 0,0,1
 157 237 157 237 175.5 139.5 c 128,-1,2
 194 42 194 42 224 -19.5 c 0,3,4
 281.763794773 -137.915779284 281.763794773 -137.915779284 350 -171 c 1,5,-1
 344 -195 l 1,6,7
 202 -154 202 -154 119.5 -6 c 128,-1,8
 37 142 37 142 37 356.5 c 128,-1,9
 37 571 37 571 119 718.5 c 128,-1,10
 201 866 201 866 343 907 c 1,11,-1
 350 884 l 1,12,13
 157 814 157 814 157 356 c 0,0,1
EndSplineSet
EndChar

StartChar: asterisk
Encoding: 42 42 10
Width: 450
GlyphClass: 2
Flags: HMW
LayerCount: 2
Fore
SplineSet
219 575 m 1,0,-1
 198 727 l 1,1,2
 198 739 198 739 205.5 747 c 128,-1,3
 213 755 213 755 225 755 c 128,-1,4
 237 755 237 755 244.5 747 c 128,-1,5
 252 739 252 739 252 728 c 128,-1,6
 252 717 252 717 242 651.5 c 128,-1,7
 232 586 232 586 232 575 c 1,8,9
 241 580 241 580 292.5 621.5 c 128,-1,10
 344 663 344 663 353.423076923 668.384615385 c 128,-1,11
 362.846153846 673.769230769 362.846153846 673.769230769 372.615384615 673.769230769 c 128,-1,12
 382.384615385 673.769230769 382.384615385 673.769230769 388.587044534 662.910931174 c 128,-1,13
 394.789473684 652.052631579 394.789473684 652.052631579 394.789473684 646.710526316 c 0,14,15
 394.789473684 629.394736842 394.789473684 629.394736842 380 622 c 1,16,17
 371 616 371 616 309.5 593 c 128,-1,18
 248 570 248 570 239 564 c 1,19,20
 248 558 248 558 309 534 c 128,-1,21
 370 510 370 510 382.512820513 503.012820513 c 128,-1,22
 395.025641026 496.025641026 395.025641026 496.025641026 395.025641026 486.141025641 c 128,-1,23
 395.025641026 476.256410256 395.025641026 476.256410256 388.783090783 464.97955648 c 128,-1,24
 382.540540541 453.702702703 382.540540541 453.702702703 372.5 453.702702703 c 128,-1,25
 362.459459459 453.702702703 362.459459459 453.702702703 353.22972973 458.851351351 c 128,-1,26
 344 464 344 464 293 505.5 c 128,-1,27
 242 547 242 547 232 552 c 1,28,-1
 253 401 l 1,29,30
 253 389 253 389 245.5 381 c 128,-1,31
 238 373 238 373 226 373 c 0,32,33
 199 375 199 375 199 401 c 0,34,35
 199 410 199 410 209 475.5 c 128,-1,36
 219 541 219 541 219 552 c 1,37,38
 210 547 210 547 158.5 505.5 c 128,-1,39
 107 464 107 464 99.5 459.5 c 128,-1,40
 92 455 92 455 82 455 c 128,-1,41
 72 455 72 455 64.5 462.5 c 128,-1,42
 57 470 57 470 57 483.5 c 128,-1,43
 57 497 57 497 69 503.5 c 128,-1,44
 81 510 81 510 142 534 c 128,-1,45
 203 558 203 558 212 564 c 1,46,47
 203 570 203 570 141.5 593 c 128,-1,48
 80 616 80 616 71 622 c 1,49,50
 56 630 56 630 56 643.5 c 128,-1,51
 56 657 56 657 64 664.5 c 128,-1,52
 72 672 72 672 81.5 672 c 128,-1,53
 91 672 91 672 99 667.5 c 128,-1,54
 107 663 107 663 158.5 621.5 c 128,-1,55
 210 580 210 580 219 575 c 1,0,-1
EndSplineSet
EndChar

StartChar: plus
Encoding: 43 43 11
Width: 525
GlyphClass: 2
Flags: HMW
LayerCount: 2
Fore
SplineSet
243 586 m 1,0,-1
 281 586 l 1,1,-1
 281 376 l 1,2,-1
 492 376 l 1,3,-1
 492 338 l 1,4,-1
 281 338 l 1,5,-1
 281 127 l 1,6,-1
 243 127 l 1,7,-1
 243 338 l 1,8,-1
 33 338 l 1,9,-1
 33 376 l 1,10,-1
 243 376 l 1,11,-1
 243 586 l 1,0,-1
EndSplineSet
EndChar

StartChar: comma
Encoding: 44 44 12
Width: 228
GlyphClass: 2
Flags: HMW
LayerCount: 2
Fore
SplineSet
60 -162 m 1,0,-1
 49 -146 l 1,1,2
 79.6976744186 -127.581395349 79.6976744186 -127.581395349 97.3488372093 -103.790697674 c 0,3,4
 128 -62.4782608696 128 -62.4782608696 128 -30 c 0,5,6
 128 -10 128 -10 105.5 -10 c 128,-1,7
 83 -10 83 -10 65.5 7.5 c 128,-1,8
 48 25 48 25 48 50 c 256,9,10
 48 75 48 75 65.5 91.5 c 128,-1,11
 83 108 83 108 113 108 c 128,-1,12
 143 108 143 108 163.5 83 c 128,-1,13
 184 58 184 58 184 16 c 0,14,15
 184 -101 184 -101 60 -162 c 1,0,-1
EndSplineSet
EndChar

StartChar: hyphen
Encoding: 45 45 13
Width: 343
GlyphClass: 2
Flags: HMW
LayerCount: 2
Fore
SplineSet
62 257 m 1,0,-1
 62 290 l 1,1,-1
 281 290 l 1,2,-1
 281 257 l 1,3,-1
 62 257 l 1,0,-1
EndSplineSet
EndChar

StartChar: period
Encoding: 46 46 14
Width: 215
GlyphClass: 2
Flags: HMW
LayerCount: 2
Fore
SplineSet
65 7 m 256,0,1
 48 24 48 24 48 49.5 c 0,2,3
 48 75 48 75 66.5 91.5 c 128,-1,4
 85 108 85 108 108 108 c 256,5,6
 131 108 131 108 149 91.5 c 128,-1,7
 167 75 167 75 167 50 c 256,8,9
 167 25 167 25 150 7.5 c 128,-1,10
 133 -10 133 -10 107.5 -10 c 0,11,12
 82 -10 82 -10 65 7 c 256,0,1
EndSplineSet
EndChar

StartChar: slash
Encoding: 47 47 15
Width: 436
GlyphClass: 2
Flags: HMW
LayerCount: 2
Fore
SplineSet
394 700 m 1,0,-1
 84 0 l 1,1,-1
 32 0 l 1,2,-1
 343 700 l 1,3,-1
 394 700 l 1,0,-1
EndSplineSet
EndChar

StartChar: zero
Encoding: 48 48 16
Width: 690
GlyphClass: 2
Flags: HMW
LayerCount: 2
Fore
SplineSet
556 87.5 m 128,-1,1
 478 -20 478 -20 345 -20 c 0,2,3
 209.91509434 -20 209.91509434 -20 133.5 88 c 0,4,5
 56 197.533333333 56 197.533333333 56 400 c 0,6,7
 56 602.053333333 56 602.053333333 134.5 713 c 0,8,9
 210.20754717 820 210.20754717 820 345 820 c 256,10,11
 478.283018868 820 478.283018868 820 555 713 c 0,12,13
 634 602.815789474 634 602.815789474 634 398.907894737 c 128,-1,0
 634 195 634 195 556 87.5 c 128,-1,1
506 304 m 2,14,-1
 506 497 l 2,15,16
 506 651 506 651 463 724 c 128,-1,17
 420 797 420 797 345 797 c 256,18,19
 270 797 270 797 227 724 c 128,-1,20
 184 651 184 651 184 497 c 2,21,-1
 184 304 l 2,22,23
 184 150 184 150 227 76.5 c 128,-1,24
 270 3 270 3 345 3 c 256,25,26
 420 3 420 3 463 75.5 c 128,-1,27
 506 148 506 148 506 304 c 2,14,-1
EndSplineSet
EndChar

StartChar: colon
Encoding: 58 58 17
Width: 243
GlyphClass: 2
Flags: HMW
LayerCount: 2
Fore
SplineSet
79 7 m 256,0,1
 62 24 62 24 62 49.5 c 0,2,3
 62 75 62 75 80.5 91.5 c 128,-1,4
 99 108 99 108 122 108 c 256,5,6
 145 108 145 108 163 91.5 c 128,-1,7
 181 75 181 75 181 50 c 256,8,9
 181 25 181 25 164 7.5 c 128,-1,10
 147 -10 147 -10 121.5 -10 c 0,11,12
 96 -10 96 -10 79 7 c 256,0,1
79 358 m 256,13,14
 62 375 62 375 62 400.5 c 0,15,16
 62 426 62 426 80.5 442.5 c 128,-1,17
 99 459 99 459 122 459 c 256,18,19
 145 459 145 459 163 442.5 c 128,-1,20
 181 426 181 426 181 401 c 256,21,22
 181 376 181 376 164 358.5 c 128,-1,23
 147 341 147 341 121.5 341 c 0,24,25
 96 341 96 341 79 358 c 256,13,14
EndSplineSet
EndChar

StartChar: semicolon
Encoding: 59 59 18
Width: 268
GlyphClass: 2
Flags: HMW
LayerCount: 2
Fore
SplineSet
85 358 m 256,0,1
 68 375 68 375 68 400.5 c 0,2,3
 68 426 68 426 86.5 442.5 c 128,-1,4
 105 459 105 459 128 459 c 256,5,6
 151 459 151 459 169 442.5 c 128,-1,7
 187 426 187 426 187 401 c 256,8,9
 187 376 187 376 170 358.5 c 128,-1,10
 153 341 153 341 127.5 341 c 0,11,12
 102 341 102 341 85 358 c 256,0,1
80 -162 m 1,13,-1
 69 -146 l 1,14,15
 99 -128 99 -128 123.5 -95.5 c 128,-1,16
 148 -63 148 -63 148 -30 c 0,17,18
 148 -10 148 -10 125.5 -10 c 0,19,20
 103 -10 103 -10 85.5 7.5 c 128,-1,21
 68 25 68 25 68 50 c 128,-1,22
 68 75 68 75 85.5 91.5 c 128,-1,23
 103 108 103 108 133 108 c 0,24,25
 163 108 163 108 183.5 82.5 c 128,-1,26
 204 57 204 57 204 16 c 0,27,28
 204 -101 204 -101 80 -162 c 1,13,-1
EndSplineSet
EndChar

StartChar: less
Encoding: 60 60 19
Width: 486
GlyphClass: 2
Flags: HMW
LayerCount: 2
Fore
SplineSet
31 347 m 1,0,-1
 31 367 l 1,1,-1
 420 577 l 1,2,-1
 420 539 l 1,3,-1
 85 357 l 1,4,-1
 420 177 l 1,5,-1
 420 139 l 1,6,-1
 31 347 l 1,0,-1
EndSplineSet
EndChar

StartChar: equal
Encoding: 61 61 20
Width: 603
GlyphClass: 2
Flags: HMW
LayerCount: 2
Fore
SplineSet
72 255 m 1,0,-1
 72 293 l 1,1,-1
 531 293 l 1,2,-1
 531 255 l 1,3,-1
 72 255 l 1,0,-1
72 421 m 1,4,-1
 72 459 l 1,5,-1
 531 459 l 1,6,-1
 531 421 l 1,7,-1
 72 421 l 1,4,-1
EndSplineSet
EndChar

StartChar: greater
Encoding: 62 62 21
Width: 486
GlyphClass: 2
Flags: HMW
LayerCount: 2
Fore
SplineSet
455 367 m 1,0,-1
 455 347 l 1,1,-1
 66 139 l 1,2,-1
 66 177 l 1,3,-1
 401 357 l 1,4,-1
 66 539 l 1,5,-1
 66 577 l 1,6,-1
 455 367 l 1,0,-1
EndSplineSet
EndChar

StartChar: question
Encoding: 63 63 22
Width: 522
GlyphClass: 2
Flags: HMW
LayerCount: 2
Fore
SplineSet
233 -10 m 128,-1,1
 208 -10 208 -10 191 7.5 c 128,-1,2
 174 25 174 25 174 50 c 128,-1,3
 174 75 174 75 191 91.5 c 128,-1,4
 208 108 208 108 233 108 c 128,-1,5
 258 108 258 108 275 91.5 c 128,-1,6
 292 75 292 75 292 50 c 128,-1,7
 292 25 292 25 275 7.5 c 128,-1,0
 258 -10 258 -10 233 -10 c 128,-1,1
222 165 m 1,8,9
 222 273.12195122 222 273.12195122 271.5 368.5 c 0,10,11
 292 408 292 408 312 446 c 0,12,13
 361 539.1 361 539.1 361 616 c 0,14,15
 361 718 361 718 332 758 c 128,-1,16
 303 798 303 798 252.5 798 c 128,-1,17
 202 798 202 798 165 772 c 128,-1,18
 128 746 128 746 128 705 c 0,19,20
 128 653 128 653 178 629 c 1,21,22
 178 594 178 594 157.5 575.5 c 128,-1,23
 137 557 137 557 107.5 557 c 128,-1,24
 78 557 78 557 55.5 579.5 c 128,-1,25
 33 602 33 602 33 641 c 0,26,27
 33 719 33 719 102.5 769.5 c 128,-1,28
 172 820 172 820 273.5 820 c 128,-1,29
 375 820 375 820 429 775 c 128,-1,30
 483 730 483 730 483 623 c 0,31,32
 483 579 483 579 465.5 538 c 128,-1,33
 448 497 448 497 421 467 c 128,-1,34
 394 437 394 437 363.5 402 c 128,-1,35
 333 367 333 367 306 335.5 c 128,-1,36
 279 304 279 304 261.5 259 c 128,-1,37
 244 214 244 214 244 165 c 1,38,-1
 222 165 l 1,8,9
EndSplineSet
EndChar

StartChar: at
Encoding: 64 64 23
Width: 882
GlyphClass: 2
Flags: HMW
LayerCount: 2
Fore
SplineSet
779.5 263.5 m 128,-1,1
 714 184 714 184 621.5 184 c 128,-1,2
 529 184 529 184 500 242 c 1,3,4
 445 185 445 185 367 185 c 128,-1,5
 289 185 289 185 247 234.5 c 128,-1,6
 205 284 205 284 205 360 c 0,7,8
 205 480 205 480 284 561 c 128,-1,9
 363 642 363 642 462 642 c 0,10,11
 503 642 503 642 535.5 623.5 c 128,-1,12
 568 605 568 605 584 576 c 1,13,-1
 600 625 l 1,14,-1
 682 625 l 1,15,-1
 587 292 l 2,16,17
 581 270 581 270 581 255 c 0,18,19
 581 215 581 215 636 215 c 0,20,21
 709 215 709 215 762 290 c 128,-1,22
 815 365 815 365 815 464 c 0,23,24
 815 610 815 610 719 696.5 c 128,-1,25
 623 783 623 783 462 783 c 128,-1,26
 301 783 301 783 190.5 672.5 c 128,-1,27
 80 562 80 562 80 400.5 c 128,-1,28
 80 239 80 239 190.5 129.5 c 128,-1,29
 301 20 301 20 462 20 c 0,30,31
 537 20 537 20 590.5 35 c 128,-1,32
 644 50 644 50 703 83 c 1,33,-1
 717 57 l 1,34,35
 654 22 654 22 596 6 c 128,-1,36
 538 -10 538 -10 462 -10 c 0,37,38
 288 -10 288 -10 169.5 108 c 128,-1,39
 51 226 51 226 51 400 c 128,-1,40
 51 574 51 574 169.5 692 c 128,-1,41
 288 810 288 810 463 810 c 128,-1,42
 638 810 638 810 741.5 715.5 c 128,-1,43
 845 621 845 621 845 464 c 0,44,0
 845 343 845 343 779.5 263.5 c 128,-1,1
495 281 m 1,45,-1
 573 542 l 1,46,47
 541 611 541 611 470 611 c 128,-1,48
 399 611 399 611 349.5 521.5 c 128,-1,49
 300 432 300 432 300 326 c 0,50,51
 300 279 300 279 321 250 c 128,-1,52
 342 221 342 221 385 221 c 0,53,54
 451 221 451 221 495 281 c 1,45,-1
EndSplineSet
EndChar

StartChar: A
Encoding: 65 65 24
Width: 721
GlyphClass: 2
Flags: HMW
LayerCount: 2
Fore
SplineSet
187 21 m 1,0,-1
 187 0 l 1,1,-1
 -27 0 l 1,2,-1
 -27 21 l 1,3,-1
 71 61 l 1,4,-1
 360 820 l 1,5,-1
 376 820 l 1,6,-1
 649 36 l 1,7,-1
 741 21 l 1,8,-1
 741 0 l 1,9,-1
 447 0 l 1,10,-1
 447 21 l 1,11,-1
 529 34 l 1,12,-1
 444 271 l 1,13,-1
 178 271 l 1,14,-1
 97 61 l 1,15,-1
 187 21 l 1,0,-1
317 644 m 1,16,-1
 186 292 l 1,17,-1
 437 292 l 1,18,-1
 317 644 l 1,16,-1
EndSplineSet
EndChar

StartChar: B
Encoding: 66 66 25
Width: 740
GlyphClass: 2
Flags: HMW
LayerCount: 2
Fore
SplineSet
689 216 m 0,0,1
 689 106 689 106 608.5 53 c 128,-1,2
 528 0 528 0 391 0 c 2,3,-1
 38 0 l 1,4,-1
 38 21 l 1,5,-1
 130 36 l 1,6,-1
 130 764 l 1,7,-1
 38 778 l 1,8,-1
 38 800 l 1,9,-1
 343 800 l 2,10,11
 502 800 502 800 569.5 755.5 c 128,-1,12
 637 711 637 711 637 613 c 0,13,14
 637 469 637 469 455 429 c 1,15,-1
 455 424 l 1,16,17
 689 393 689 393 689 216 c 0,0,1
391 407 m 2,18,-1
 240 407 l 1,19,-1
 240 24 l 1,20,-1
 391 24 l 2,21,22
 476 24 476 24 523 73.5 c 128,-1,23
 570 123 570 123 570 215 c 2,24,-1
 570 226 l 2,25,26
 570 317 570 317 523.5 362 c 128,-1,27
 477 407 477 407 391 407 c 2,18,-1
343 775 m 2,28,-1
 240 775 l 1,29,-1
 240 432 l 1,30,-1
 351 432 l 2,31,32
 431 432 431 432 474 477 c 128,-1,33
 517 522 517 522 517 605 c 2,34,-1
 517 611 l 2,35,36
 517 775 517 775 343 775 c 2,28,-1
EndSplineSet
EndChar

StartChar: C
Encoding: 67 67 26
Width: 740
GlyphClass: 2
Flags: HMW
LayerCount: 2
Fore
SplineSet
654 820 m 1,0,-1
 675 820 l 1,1,-1
 675 572 l 1,2,-1
 654 572 l 1,3,-1
 592 727 l 1,4,5
 516 797 516 797 419 797 c 0,6,7
 312.493670886 797 312.493670886 797 247.5 715.5 c 0,8,9
 182 633.365079365 182 633.365079365 182 492 c 2,10,-1
 182 309 l 2,11,12
 182 167.45 182 167.45 245 84.5 c 0,13,14
 306.898734177 3 306.898734177 3 414 3 c 0,15,16
 465 3 465 3 516 25.5 c 128,-1,17
 567 48 567 48 601 86 c 1,18,-1
 659 247 l 1,19,-1
 680 247 l 1,20,-1
 680 -10 l 1,21,-1
 659 -10 l 1,22,-1
 587 41 l 1,23,24
 511 -20 511 -20 421 -20 c 128,-1,25
 331 -20 331 -20 264.5 10.5 c 128,-1,26
 198 41 198 41 150.5 96.5 c 0,27,28
 52 211.589473684 52 211.589473684 52 400 c 0,29,30
 52 585.71875 52 585.71875 153 702.5 c 0,31,32
 254.621621622 820 254.621621622 820 419 820 c 0,33,34
 509 820 509 820 587 763 c 1,35,-1
 654 820 l 1,0,-1
EndSplineSet
EndChar

StartChar: D
Encoding: 68 68 27
Width: 850
GlyphClass: 2
Flags: HMW
LayerCount: 2
Fore
SplineSet
38 800 m 1,0,-1
 421 800 l 2,1,2
 503 800 503 800 572.5 771 c 128,-1,3
 642 742 642 742 692 689.5 c 0,4,5
 798 578.2 798 578.2 798 400 c 256,6,7
 798 219.75 798 219.75 693 109.5 c 0,8,9
 588.714285714 -5.68434188608e-14 588.714285714 -5.68434188608e-14 421 0 c 2,10,-1
 38 0 l 1,11,-1
 38 21 l 1,12,-1
 130 36 l 1,13,-1
 130 764 l 1,14,-1
 38 778 l 1,15,-1
 38 800 l 1,0,-1
421 775 m 2,16,-1
 240 775 l 1,17,-1
 240 24 l 1,18,-1
 421 24 l 2,19,20
 532 24 532 24 601.5 101.5 c 128,-1,21
 671 179 671 179 671 323 c 2,22,-1
 671 477 l 2,23,24
 671 621 671 621 602 698 c 128,-1,25
 533 775 533 775 421 775 c 2,16,-1
EndSplineSet
EndChar

StartChar: E
Encoding: 69 69 28
Width: 716
GlyphClass: 2
Flags: HMW
LayerCount: 2
Fore
SplineSet
429 560 m 1,0,-1
 455 560 l 1,1,-1
 455 244 l 1,2,-1
 429 244 l 1,3,-1
 369 391 l 1,4,-1
 240 391 l 1,5,-1
 240 24 l 1,6,-1
 554 24 l 1,7,-1
 636 244 l 1,8,-1
 662 244 l 1,9,-1
 662 0 l 1,10,-1
 38 0 l 1,11,-1
 38 21 l 1,12,-1
 130 36 l 1,13,-1
 130 764 l 1,14,-1
 38 778 l 1,15,-1
 38 800 l 1,16,-1
 640 800 l 1,17,-1
 640 571 l 1,18,-1
 613 571 l 1,19,-1
 536 775 l 1,20,-1
 240 775 l 1,21,-1
 240 415 l 1,22,-1
 370 415 l 1,23,-1
 429 560 l 1,0,-1
EndSplineSet
EndChar

StartChar: F
Encoding: 70 70 29
Width: 669
GlyphClass: 2
Flags: HMW
LayerCount: 2
Fore
SplineSet
332 21 m 1,0,-1
 332 0 l 1,1,-1
 38 0 l 1,2,-1
 38 21 l 1,3,-1
 130 36 l 1,4,-1
 130 764 l 1,5,-1
 38 778 l 1,6,-1
 38 800 l 1,7,-1
 640 800 l 1,8,-1
 640 556 l 1,9,-1
 613 556 l 1,10,-1
 536 775 l 1,11,-1
 240 775 l 1,12,-1
 240 400 l 1,13,-1
 409 400 l 1,14,-1
 468 545 l 1,15,-1
 495 545 l 1,16,-1
 495 229 l 1,17,-1
 468 229 l 1,18,-1
 409 376 l 1,19,-1
 240 376 l 1,20,-1
 240 36 l 1,21,-1
 332 21 l 1,0,-1
EndSplineSet
EndChar

StartChar: G
Encoding: 71 71 30
Width: 812
GlyphClass: 2
Flags: HMW
LayerCount: 2
Fore
SplineSet
659 820 m 1,0,-1
 680 820 l 1,1,-1
 680 572 l 1,2,-1
 659 572 l 1,3,-1
 593 737 l 1,4,5
 521 797 521 797 419 797 c 0,6,7
 317 797 317 797 248.5 715.5 c 128,-1,8
 180 634 180 634 180 492 c 2,9,-1
 180 309 l 2,10,11
 180 166 180 166 244 84.5 c 128,-1,12
 308 3 308 3 414 3 c 0,13,14
 500 3 500 3 547.5 61 c 128,-1,15
 595 119 595 119 595 218 c 2,16,-1
 595 331 l 1,17,-1
 502 345 l 1,18,-1
 502 367 l 1,19,-1
 801 367 l 1,20,-1
 801 345 l 1,21,-1
 708 331 l 1,22,-1
 708 218 l 2,23,24
 708 119 708 119 634.5 49.5 c 128,-1,25
 561 -20 561 -20 414 -20 c 0,26,27
 249 -20 249 -20 150.5 96 c 128,-1,28
 52 212 52 212 52 399.5 c 0,29,30
 52 587 52 587 155 703.5 c 128,-1,31
 258 820 258 820 424 820 c 0,32,33
 526 820 526 820 598 768 c 1,34,-1
 659 820 l 1,0,-1
EndSplineSet
EndChar

StartChar: H
Encoding: 72 72 31
Width: 860
GlyphClass: 2
Flags: HMW
LayerCount: 2
Fore
SplineSet
822 21 m 1,0,-1
 822 0 l 1,1,-1
 527 0 l 1,2,-1
 527 21 l 1,3,-1
 620 36 l 1,4,-1
 620 411 l 1,5,-1
 240 411 l 1,6,-1
 240 36 l 1,7,-1
 332 21 l 1,8,-1
 332 0 l 1,9,-1
 38 0 l 1,10,-1
 38 21 l 1,11,-1
 130 36 l 1,12,-1
 130 764 l 1,13,-1
 38 778 l 1,14,-1
 38 800 l 1,15,-1
 332 800 l 1,16,-1
 332 778 l 1,17,-1
 240 764 l 1,18,-1
 240 436 l 1,19,-1
 620 436 l 1,20,-1
 620 764 l 1,21,-1
 527 778 l 1,22,-1
 527 800 l 1,23,-1
 822 800 l 1,24,-1
 822 778 l 1,25,-1
 729 764 l 1,26,-1
 729 36 l 1,27,-1
 822 21 l 1,0,-1
EndSplineSet
EndChar

StartChar: I
Encoding: 73 73 32
Width: 370
GlyphClass: 2
Flags: HMW
LayerCount: 2
Fore
SplineSet
332 21 m 1,0,-1
 332 0 l 1,1,-1
 38 0 l 1,2,-1
 38 21 l 1,3,-1
 130 36 l 1,4,-1
 130 764 l 1,5,-1
 38 778 l 1,6,-1
 38 800 l 1,7,-1
 332 800 l 1,8,-1
 332 778 l 1,9,-1
 240 764 l 1,10,-1
 240 36 l 1,11,-1
 332 21 l 1,0,-1
EndSplineSet
EndChar

StartChar: J
Encoding: 74 74 33
Width: 447
GlyphClass: 2
Flags: HMW
LayerCount: 2
Fore
SplineSet
240.5 -4.5 m 128,-1,1
 203 -20 203 -20 144.5 -20 c 128,-1,2
 86 -20 86 -20 46.5 6 c 128,-1,3
 7 32 7 32 7 82 c 0,4,5
 7 115 7 115 25.5 135.5 c 128,-1,6
 44 156 44 156 71 156 c 128,-1,7
 98 156 98 156 114 141 c 128,-1,8
 130 126 130 126 134 112 c 1,9,-1
 137 97 l 1,10,11
 108 76 108 76 108 52.5 c 128,-1,12
 108 29 108 29 120 16 c 128,-1,13
 132 3 132 3 153 3 c 0,14,15
 185 3 185 3 201.5 46 c 128,-1,16
 218 89 218 89 222 197 c 1,17,-1
 222 764 l 1,18,-1
 130 778 l 1,19,-1
 130 800 l 1,20,-1
 420 800 l 1,21,-1
 420 778 l 1,22,-1
 328 764 l 1,23,-1
 328 197 l 2,24,25
 328 145 328 145 321.5 110 c 128,-1,26
 315 75 315 75 296.5 43 c 128,-1,0
 278 11 278 11 240.5 -4.5 c 128,-1,1
EndSplineSet
EndChar

StartChar: K
Encoding: 75 75 34
Width: 737
GlyphClass: 2
Flags: HMW
LayerCount: 2
Fore
SplineSet
766 0 m 1,0,-1
 471 0 l 1,1,-1
 471 21 l 1,2,-1
 562 35 l 1,3,-1
 300 430 l 1,4,-1
 240 369 l 1,5,-1
 240 36 l 1,6,-1
 332 21 l 1,7,-1
 332 0 l 1,8,-1
 38 0 l 1,9,-1
 38 21 l 1,10,-1
 130 36 l 1,11,-1
 130 764 l 1,12,-1
 38 778 l 1,13,-1
 38 800 l 1,14,-1
 332 800 l 1,15,-1
 332 778 l 1,16,-1
 240 764 l 1,17,-1
 240 404 l 1,18,-1
 565 736 l 1,19,-1
 456 778 l 1,20,-1
 456 800 l 1,21,-1
 687 800 l 1,22,-1
 687 778 l 1,23,-1
 605 736 l 1,24,-1
 378 508 l 1,25,-1
 698 36 l 1,26,-1
 766 21 l 1,27,-1
 766 0 l 1,0,-1
EndSplineSet
EndChar

StartChar: L
Encoding: 76 76 35
Width: 672
GlyphClass: 2
Flags: HMW
LayerCount: 2
Fore
SplineSet
38 800 m 1,0,-1
 332 800 l 1,1,-1
 332 778 l 1,2,-1
 240 764 l 1,3,-1
 240 24 l 1,4,-1
 539 24 l 1,5,-1
 621 244 l 1,6,-1
 648 244 l 1,7,-1
 648 0 l 1,8,-1
 38 0 l 1,9,-1
 38 21 l 1,10,-1
 130 36 l 1,11,-1
 130 764 l 1,12,-1
 38 778 l 1,13,-1
 38 800 l 1,0,-1
EndSplineSet
EndChar

StartChar: M
Encoding: 77 77 36
Width: 1008
GlyphClass: 2
Flags: HMW
LayerCount: 2
Fore
SplineSet
132 61 m 1,0,-1
 132 764 l 1,1,-1
 40 778 l 1,2,-1
 40 800 l 1,3,-1
 261 800 l 1,4,-1
 512 158 l 1,5,-1
 768 800 l 1,6,-1
 970 800 l 1,7,-1
 970 778 l 1,8,-1
 878 764 l 1,9,-1
 878 36 l 1,10,-1
 970 21 l 1,11,-1
 970 0 l 1,12,-1
 676 0 l 1,13,-1
 676 21 l 1,14,-1
 768 36 l 1,15,-1
 768 734 l 1,16,-1
 472 -10 l 1,17,-1
 454 -10 l 1,18,-1
 156 764 l 1,19,-1
 156 61 l 1,20,-1
 252 21 l 1,21,-1
 252 0 l 1,22,-1
 38 0 l 1,23,-1
 38 21 l 1,24,-1
 132 61 l 1,0,-1
EndSplineSet
EndChar

StartChar: N
Encoding: 78 78 37
Width: 810
GlyphClass: 2
Flags: HMW
LayerCount: 2
Fore
SplineSet
134 61 m 1,0,-1
 134 739 l 1,1,-1
 41 778 l 1,2,-1
 41 800 l 1,3,-1
 227 800 l 1,4,-1
 658 196 l 1,5,-1
 658 739 l 1,6,-1
 565 778 l 1,7,-1
 565 800 l 1,8,-1
 778 800 l 1,9,-1
 778 778 l 1,10,-1
 683 739 l 1,11,-1
 683 0 l 1,12,-1
 658 0 l 1,13,-1
 159 701 l 1,14,-1
 159 61 l 1,15,-1
 255 21 l 1,16,-1
 255 0 l 1,17,-1
 41 0 l 1,18,-1
 41 21 l 1,19,-1
 134 61 l 1,0,-1
EndSplineSet
EndChar

StartChar: O
Encoding: 79 79 38
Width: 856
GlyphClass: 2
Flags: HMW
LayerCount: 2
Fore
SplineSet
51 400.5 m 0,0,1
 51 494 51 494 79 571 c 128,-1,2
 107 648 107 648 157.5 703.5 c 0,3,4
 263.504504505 820 263.504504505 820 428 820 c 256,5,6
 510 820 510 820 579.5 789 c 128,-1,7
 649 758 649 758 699 702.5 c 0,8,9
 805 584.84 805 584.84 805 400 c 0,10,11
 805 215.6 805 215.6 700 98 c 0,12,13
 650 42 650 42 580.5 11 c 128,-1,14
 511 -20 511 -20 428 -20 c 256,15,16
 262.855855856 -20 262.855855856 -20 157 97.5 c 128,-1,17
 51 215.16 51 215.16 51 400.5 c 0,0,1
681 323 m 2,18,-1
 681 477 l 2,19,20
 681 621.925373134 681 621.925373134 609.5 710.5 c 0,21,22
 539.674698795 797 539.674698795 797 428 797 c 256,23,24
 316.325301205 797 316.325301205 797 246.5 710.5 c 0,25,26
 175 621.925373134 175 621.925373134 175 477 c 2,27,-1
 175 323 l 2,28,29
 175 175.161764706 175 175.161764706 246 88.5 c 0,30,31
 316.048192771 3 316.048192771 3 428 3 c 128,-1,32
 539.951807229 3 539.951807229 3 610 88.5 c 0,33,34
 681 175.161764706 681 175.161764706 681 323 c 2,18,-1
EndSplineSet
EndChar

StartChar: P
Encoding: 80 80 39
Width: 676
GlyphClass: 2
Flags: HMW
LayerCount: 2
Fore
SplineSet
352 310 m 2,0,-1
 240 310 l 1,1,-1
 240 36 l 1,2,-1
 332 21 l 1,3,-1
 332 0 l 1,4,-1
 38 0 l 1,5,-1
 38 21 l 1,6,-1
 130 36 l 1,7,-1
 130 764 l 1,8,-1
 38 778 l 1,9,-1
 38 800 l 1,10,-1
 352 800 l 2,11,12
 644 800 644 800 644 555 c 256,13,14
 644 310 644 310 352 310 c 2,0,-1
338 775 m 2,15,-1
 240 775 l 1,16,-1
 240 334 l 1,17,-1
 338 334 l 2,18,19
 523 334 523 334 523 535 c 2,20,-1
 523 575 l 2,21,22
 523 775 523 775 338 775 c 2,15,-1
EndSplineSet
EndChar

StartChar: R
Encoding: 82 82 40
Width: 726
GlyphClass: 2
Flags: HMW
LayerCount: 2
Fore
SplineSet
729 69 m 1,0,-1
 746 51 l 1,1,2
 692 -10 692 -10 619 -10 c 0,3,4
 563 -10 563 -10 535 17 c 128,-1,5
 507 44 507 44 497 109 c 2,6,-1
 478 243 l 2,7,8
 457 388 457 388 318 388 c 2,9,-1
 240 388 l 1,10,-1
 240 36 l 1,11,-1
 332 21 l 1,12,-1
 332 0 l 1,13,-1
 38 0 l 1,14,-1
 38 21 l 1,15,-1
 130 36 l 1,16,-1
 130 764 l 1,17,-1
 38 778 l 1,18,-1
 38 800 l 1,19,-1
 318 800 l 2,20,21
 481 800 481 800 554 749 c 128,-1,22
 627 698 627 698 627 594 c 0,23,24
 627 422 627 422 419 395 c 1,25,-1
 419 389 l 1,26,27
 576 367 576 367 601 217 c 1,28,-1
 614 131 l 2,29,30
 622 81 622 81 631 60.5 c 0,31,32
 642.107317073 35.2 642.107317073 35.2 669.08699187 35.2 c 128,-1,33
 696.066666667 35.2 696.066666667 35.2 729 69 c 1,0,-1
318 775 m 2,34,-1
 240 775 l 1,35,-1
 240 412 l 1,36,-1
 352 412 l 2,37,38
 425 412 425 412 465.5 456.5 c 128,-1,39
 506 501 506 501 506 588 c 2,40,-1
 506 609 l 2,41,42
 506 775 506 775 318 775 c 2,34,-1
EndSplineSet
EndChar

StartChar: S
Encoding: 83 83 41
Width: 651
GlyphClass: 2
Flags: HMW
LayerCount: 2
Fore
SplineSet
537 820 m 1,0,-1
 559 820 l 1,1,-1
 559 616 l 1,2,-1
 537 616 l 1,3,-1
 465 762 l 1,4,5
 390 798 390 798 302.5 798 c 0,6,7
 215 798 215 798 165 753.5 c 128,-1,8
 115 709 115 709 115 636 c 0,9,10
 115 582 115 582 150.5 551 c 128,-1,11
 186 520 186 520 255 502 c 2,12,-1
 434 455 l 2,13,14
 521 433 521 433 563.5 379.5 c 128,-1,15
 606 326 606 326 606 216 c 0,16,17
 606 106 606 106 537.5 43 c 128,-1,18
 469 -20 469 -20 354 -20 c 0,19,20
 261 -20 261 -20 171 33 c 1,21,-1
 86 -10 l 1,22,-1
 64 -10 l 1,23,-1
 64 247 l 1,24,-1
 86 247 l 1,25,-1
 172 61 l 1,26,27
 255 2 255 2 352.5 2 c 0,28,29
 450 2 450 2 507.5 48.5 c 128,-1,30
 565 95 565 95 565 179 c 0,31,32
 565 240 565 240 528 275.5 c 128,-1,33
 491 311 491 311 408 332 c 2,34,-1
 242 375 l 2,35,36
 155 398 155 398 111 453.5 c 128,-1,37
 67 509 67 509 67 585 c 0,38,39
 67 691 67 691 129 755.5 c 128,-1,40
 191 820 191 820 301 820 c 0,41,42
 392 820 392 820 464 789 c 1,43,-1
 537 820 l 1,0,-1
EndSplineSet
EndChar

StartChar: T
Encoding: 84 84 42
Width: 698
GlyphClass: 2
Flags: HMW
LayerCount: 2
Fore
SplineSet
645 577 m 1,0,-1
 570 775 l 1,1,-1
 404 775 l 1,2,-1
 404 36 l 1,3,-1
 496 21 l 1,4,-1
 496 0 l 1,5,-1
 202 0 l 1,6,-1
 202 21 l 1,7,-1
 294 36 l 1,8,-1
 294 775 l 1,9,-1
 129 775 l 1,10,-1
 53 577 l 1,11,-1
 24 577 l 1,12,-1
 24 800 l 1,13,-1
 675 800 l 1,14,-1
 675 577 l 1,15,-1
 645 577 l 1,0,-1
EndSplineSet
EndChar

StartChar: U
Encoding: 85 85 43
Width: 807
GlyphClass: 2
Flags: HMW
LayerCount: 2
Fore
SplineSet
686 219 m 2,0,1
 686 99 686 99 619 39.5 c 128,-1,2
 552 -20 552 -20 403 -20 c 0,3,4
 254 -20 254 -20 186 45.5 c 128,-1,5
 118 111 118 111 118 219 c 2,6,-1
 118 764 l 1,7,-1
 26 778 l 1,8,-1
 26 800 l 1,9,-1
 320 800 l 1,10,-1
 320 778 l 1,11,-1
 228 764 l 1,12,-1
 228 219 l 2,13,14
 228 16 228 16 450 16 c 0,15,16
 662 16 662 16 662 219 c 2,17,-1
 662 739 l 1,18,-1
 569 778 l 1,19,-1
 569 800 l 1,20,-1
 782 800 l 1,21,-1
 782 778 l 1,22,-1
 686 739 l 1,23,-1
 686 219 l 2,0,1
EndSplineSet
EndChar

StartChar: V
Encoding: 86 86 44
Width: 693
GlyphClass: 2
Flags: HMW
LayerCount: 2
Fore
SplineSet
340 -20 m 1,0,-1
 52 764 l 1,1,-1
 -28 778 l 1,2,-1
 -28 800 l 1,3,-1
 265 800 l 1,4,-1
 265 778 l 1,5,-1
 171 766 l 1,6,-1
 391 167 l 1,7,-1
 607 733 l 1,8,-1
 492 778 l 1,9,-1
 492 800 l 1,10,-1
 707 800 l 1,11,-1
 707 778 l 1,12,-1
 634 734 l 1,13,-1
 348 -20 l 1,14,-1
 340 -20 l 1,0,-1
EndSplineSet
EndChar

StartChar: W
Encoding: 87 87 45
Width: 1083
GlyphClass: 2
Flags: HMW
LayerCount: 2
Fore
SplineSet
891 778 m 1,0,-1
 891 800 l 1,1,-1
 1106 800 l 1,2,-1
 1106 778 l 1,3,-1
 1030 734 l 1,4,-1
 744 -20 l 1,5,-1
 736 -20 l 1,6,-1
 541 519 l 1,7,-1
 337 -20 l 1,8,-1
 329 -20 l 1,9,-1
 47 764 l 1,10,-1
 -20 778 l 1,11,-1
 -20 800 l 1,12,-1
 258 800 l 1,13,-1
 258 778 l 1,14,-1
 167 764 l 1,15,-1
 382 172 l 1,16,-1
 528 554 l 1,17,-1
 453 764 l 1,18,-1
 361 778 l 1,19,-1
 361 800 l 1,20,-1
 658 800 l 1,21,-1
 658 778 l 1,22,-1
 572 766 l 1,23,-1
 789 173 l 1,24,-1
 1004 733 l 1,25,-1
 891 778 l 1,0,-1
EndSplineSet
EndChar

StartChar: X
Encoding: 88 88 46
Width: 761
GlyphClass: 2
Flags: HMW
LayerCount: 2
Fore
SplineSet
241 21 m 1,0,-1
 241 0 l 1,1,-1
 2 0 l 1,2,-1
 2 21 l 1,3,-1
 101 77 l 1,4,-1
 330 383 l 1,5,-1
 77 764 l 1,6,-1
 -8 778 l 1,7,-1
 -8 800 l 1,8,-1
 295 800 l 1,9,-1
 295 778 l 1,10,-1
 216 766 l 1,11,-1
 410 472 l 1,12,-1
 603 730 l 1,13,-1
 484 778 l 1,14,-1
 484 800 l 1,15,-1
 723 800 l 1,16,-1
 723 778 l 1,17,-1
 628 725 l 1,18,-1
 424 452 l 1,19,-1
 701 35 l 1,20,-1
 787 21 l 1,21,-1
 787 0 l 1,22,-1
 483 0 l 1,23,-1
 483 21 l 1,24,-1
 562 34 l 1,25,-1
 344 362 l 1,26,-1
 123 68 l 1,27,-1
 241 21 l 1,0,-1
EndSplineSet
EndChar

StartChar: Y
Encoding: 89 89 47
Width: 676
GlyphClass: 2
Flags: HMW
LayerCount: 2
Fore
SplineSet
399 373 m 1,0,-1
 399 36 l 1,1,-1
 492 21 l 1,2,-1
 492 0 l 1,3,-1
 198 0 l 1,4,-1
 198 21 l 1,5,-1
 291 36 l 1,6,-1
 291 340 l 1,7,-1
 48 764 l 1,8,-1
 -31 778 l 1,9,-1
 -31 800 l 1,10,-1
 270 800 l 1,11,-1
 270 778 l 1,12,-1
 177 764 l 1,13,-1
 387 401 l 1,14,-1
 580 730 l 1,15,-1
 460 778 l 1,16,-1
 460 800 l 1,17,-1
 684 800 l 1,18,-1
 684 778 l 1,19,-1
 607 729 l 1,20,-1
 399 373 l 1,0,-1
EndSplineSet
EndChar

StartChar: Z
Encoding: 90 90 48
Width: 682
GlyphClass: 2
Flags: HMW
LayerCount: 2
Fore
SplineSet
80 800 m 1,0,-1
 630 800 l 1,1,-1
 630 775 l 1,2,-1
 161 24 l 1,3,-1
 511 24 l 1,4,-1
 614 229 l 1,5,-1
 640 229 l 1,6,-1
 616 0 l 1,7,-1
 27 0 l 1,8,-1
 27 24 l 1,9,-1
 495 775 l 1,10,-1
 185 775 l 1,11,-1
 82 585 l 1,12,-1
 56 585 l 1,13,-1
 80 800 l 1,0,-1
EndSplineSet
EndChar

StartChar: bracketleft
Encoding: 91 91 49
Width: 310
GlyphClass: 2
Flags: HMW
LayerCount: 2
Fore
SplineSet
300 -185 m 1,0,-1
 86 -185 l 1,1,-1
 86 897 l 1,2,-1
 300 897 l 1,3,-1
 300 867 l 1,4,-1
 187 867 l 1,5,-1
 187 -155 l 1,6,-1
 300 -155 l 1,7,-1
 300 -185 l 1,0,-1
EndSplineSet
EndChar

StartChar: backslash
Encoding: 92 92 50
Width: 436
GlyphClass: 2
Flags: HMW
LayerCount: 2
Fore
SplineSet
352 0 m 1,0,-1
 42 700 l 1,1,-1
 93 700 l 1,2,-1
 404 0 l 1,3,-1
 352 0 l 1,0,-1
EndSplineSet
EndChar

StartChar: asciicircum
Encoding: 94 94 52
Width: 574
GlyphClass: 2
Flags: HMW
LayerCount: 2
Fore
SplineSet
267 674 m 1,0,-1
 306 674 l 1,1,-1
 512 267 l 1,2,-1
 462 267 l 1,3,-1
 286 612 l 1,4,-1
 111 267 l 1,5,-1
 61 267 l 1,6,-1
 267 674 l 1,0,-1
EndSplineSet
EndChar

StartChar: underscore
Encoding: 95 95 53
Width: 459
GlyphClass: 2
Flags: HMW
LayerCount: 2
Fore
SplineSet
459 -78 m 1,0,-1
 459 -113 l 1,1,-1
 0 -113 l 1,2,-1
 0 -78 l 1,3,-1
 459 -78 l 1,0,-1
EndSplineSet
EndChar

StartChar: grave
Encoding: 96 96 54
Width: 221
GlyphClass: 2
Flags: HMW
LayerCount: 2
Fore
SplineSet
-3 687 m 2,0,1
 -20 701 -20 701 -20 721 c 128,-1,2
 -20 741 -20 741 -6 755 c 128,-1,3
 8 769 8 769 27 769 c 0,4,5
 57 769 57 769 71 741 c 2,6,-1
 144 583 l 1,7,-1
 128 571 l 1,8,-1
 -3 687 l 2,0,1
EndSplineSet
EndChar

StartChar: a
Encoding: 97 97 55
Width: 558
GlyphClass: 2
Flags: HMW
LayerCount: 2
Fore
SplineSet
366 99 m 1,0,1
 341 48 341 48 291 19 c 128,-1,2
 241 -10 241 -10 179 -10 c 128,-1,3
 117 -10 117 -10 77 23.5 c 128,-1,4
 37 57 37 57 37 115.5 c 128,-1,5
 37 174 37 174 62 207.5 c 128,-1,6
 87 241 87 241 128 261.5 c 0,7,8
 201 298 201 298 329 298 c 2,9,-1
 366 298 l 1,10,-1
 366 393 l 2,11,12
 366 505 366 505 264 505 c 0,13,14
 219 505 219 505 190 484 c 128,-1,15
 161 463 161 463 161 435.5 c 128,-1,16
 161 408 161 408 189 399 c 1,17,18
 189 374 189 374 170 355 c 128,-1,19
 151 336 151 336 125 336 c 256,20,21
 99 336 99 336 81 354.5 c 128,-1,22
 63 373 63 373 63 400.5 c 128,-1,23
 63 428 63 428 79.5 451.5 c 128,-1,24
 96 475 96 475 123.5 492 c 0,25,26
 180.117647059 527 180.117647059 527 264 527 c 0,27,28
 466 527 466 527 466 373 c 2,29,-1
 466 67 l 2,30,31
 466 22 466 22 503 22 c 256,32,33
 540 22 540 22 540 65 c 1,34,-1
 561 65 l 1,35,36
 561 30 561 30 538 10 c 128,-1,37
 515 -10 515 -10 472 -10 c 256,38,39
 429 -10 429 -10 398 17 c 128,-1,40
 367 44 367 44 366 99 c 1,0,1
366 170 m 1,41,-1
 366 273 l 1,42,-1
 329 273 l 2,43,44
 251 273 251 273 198.5 236 c 128,-1,45
 146 199 146 199 146 123 c 0,46,47
 146 83 146 83 168 60 c 128,-1,48
 190 37 190 37 233.5 37 c 128,-1,49
 277 37 277 37 318.5 73 c 128,-1,50
 360 109 360 109 366 170 c 1,41,-1
EndSplineSet
EndChar

StartChar: b
Encoding: 98 98 56
Width: 640
GlyphClass: 2
Flags: HMW
LayerCount: 2
Fore
SplineSet
20 0 m 1,0,-1
 20 20 l 1,1,-1
 90 30 l 1,2,-1
 90 770 l 1,3,-1
 20 780 l 1,4,-1
 20 800 l 1,5,-1
 190 800 l 1,6,-1
 190 413 l 1,7,8
 244 527 244 527 359 527 c 0,9,10
 467.943661972 527 467.943661972 527 533 452.5 c 128,-1,11
 598 378.064516129 598 378.064516129 598 259 c 256,12,13
 598 138.935483871 598 138.935483871 533 64.5 c 128,-1,14
 467.943661972 -10 467.943661972 -10 355.971830986 -10 c 128,-1,15
 244 -10 244 -10 190 104 c 1,16,-1
 190 0 l 1,17,-1
 20 0 l 1,0,-1
488 209 m 2,18,-1
 488 309 l 2,19,20
 488 502 488 502 349 502 c 0,21,22
 282 502 282 502 237 447.5 c 128,-1,23
 192 393 192 393 190 316 c 1,24,-1
 190 209 l 2,25,26
 190 130 190 130 235.5 72.5 c 128,-1,27
 281 15 281 15 349 15 c 0,28,29
 488 15 488 15 488 209 c 2,18,-1
EndSplineSet
EndChar

StartChar: c
Encoding: 99 99 57
Width: 543
GlyphClass: 2
Flags: HMW
LayerCount: 2
Fore
SplineSet
381 369 m 1,0,1
 408 388 408 388 408 423 c 0,2,3
 408 458 408 458 378.5 481.5 c 128,-1,4
 349 505 349 505 300 505 c 0,5,6
 228 505 228 505 189.5 453.5 c 128,-1,7
 151 402 151 402 151 309 c 2,8,-1
 151 209 l 2,9,10
 151 120 151 120 188.5 66 c 128,-1,11
 226 12 226 12 297 12 c 0,12,13
 368 12 368 12 418.5 50.5 c 128,-1,14
 469 89 469 89 481 152 c 1,15,-1
 504 152 l 1,16,17
 490 78 490 78 434.5 34 c 128,-1,18
 379 -10 379 -10 300 -10 c 0,19,20
 190 -10 190 -10 115.5 64.5 c 128,-1,21
 41 139 41 139 41 261 c 0,22,23
 41 383 41 383 118 455 c 128,-1,24
 195 527 195 527 300 527 c 0,25,26
 387 527 387 527 446.5 483.5 c 128,-1,27
 506 440 506 440 506 374 c 0,28,29
 506 341 506 341 489 323.5 c 128,-1,30
 472 306 472 306 444.5 306 c 0,31,32
 417 306 417 306 399 324 c 128,-1,33
 381 342 381 342 381 369 c 1,0,1
EndSplineSet
EndChar

StartChar: d
Encoding: 100 100 58
Width: 640
GlyphClass: 2
Flags: HMW
LayerCount: 2
Fore
SplineSet
450 0 m 1,0,-1
 450 104 l 1,1,2
 396 -10 396 -10 281 -10 c 0,3,4
 172.718309859 -10 172.718309859 -10 107.5 63.5 c 0,5,6
 42 137.317460317 42 137.317460317 42 259 c 256,7,8
 42 381.222222222 42 381.222222222 107.5 454 c 0,9,10
 173.2 527 173.2 527 284.6 527 c 128,-1,11
 396 527 396 527 450 413 c 1,12,-1
 450 770 l 1,13,-1
 380 780 l 1,14,-1
 380 800 l 1,15,-1
 550 800 l 1,16,-1
 550 30 l 1,17,-1
 620 20 l 1,18,-1
 620 0 l 1,19,-1
 450 0 l 1,0,-1
152 309 m 2,20,-1
 152 209 l 2,21,22
 152 15 152 15 291 15 c 0,23,24
 357 15 357 15 402.5 69.5 c 128,-1,25
 448 124 448 124 450 201 c 1,26,-1
 450 316 l 1,27,28
 448 393 448 393 402.5 447.5 c 128,-1,29
 357 502 357 502 291 502 c 0,30,31
 152 502 152 502 152 309 c 2,20,-1
EndSplineSet
EndChar

StartChar: e
Encoding: 101 101 59
Width: 557
GlyphClass: 2
Flags: HMW
LayerCount: 2
Fore
SplineSet
303 12 m 0,0,1
 339 12 339 12 370.5 22.5 c 128,-1,2
 402 33 402 33 427 51.5 c 0,3,4
 480.162650602 90.8403614458 480.162650602 90.8403614458 492 152 c 1,5,-1
 515 152 l 1,6,7
 501 77 501 77 444 33.5 c 128,-1,8
 387 -10 387 -10 305 -10 c 0,9,10
 191.557142857 -10 191.557142857 -10 116.5 64 c 0,11,12
 41 138.436619718 41 138.436619718 41 259 c 256,13,14
 41 377.420289855 41 377.420289855 115.5 453 c 0,15,16
 188.442857143 527 188.442857143 527 299 527 c 0,17,18
 395.542372881 527 395.542372881 527 456 465.5 c 0,19,20
 517.011743119 403.436330275 517.011743119 403.436330275 519 308 c 1,21,-1
 151 308 l 1,22,-1
 151 209 l 2,23,24
 151 119.666666667 151 119.666666667 190.5 67 c 0,25,26
 231.75 12 231.75 12 303 12 c 0,0,1
298 505 m 0,27,28
 231 505 231 505 194 458 c 128,-1,29
 157 411 157 411 152 333 c 1,30,-1
 409 333 l 1,31,32
 409 505 409 505 298 505 c 0,27,28
EndSplineSet
EndChar

StartChar: f
Encoding: 102 102 60
Width: 342
GlyphClass: 2
Flags: HMW
LayerCount: 2
Fore
SplineSet
26 0 m 1,0,-1
 26 20 l 1,1,-1
 96 30 l 1,2,-1
 96 488 l 1,3,-1
 26 498 l 1,4,-1
 26 518 l 1,5,-1
 96 518 l 1,6,-1
 96 602 l 2,7,8
 96 810 96 810 268 810 c 0,9,10
 327 810 327 810 365.5 781.5 c 128,-1,11
 404 753 404 753 404 704 c 0,12,13
 404 674 404 674 387.5 655 c 128,-1,14
 371 636 371 636 344.5 636 c 0,15,16
 318 636 318 636 299 655 c 128,-1,17
 280 674 280 674 280 699 c 1,18,19
 314 709 314 709 314 746 c 0,20,21
 314 763 314 763 300.5 775.5 c 128,-1,22
 287 788 287 788 268 788 c 0,23,24
 229 788 229 788 212.5 751.5 c 128,-1,25
 196 715 196 715 196 633 c 2,26,-1
 196 518 l 1,27,-1
 326 518 l 1,28,-1
 326 498 l 1,29,-1
 196 488 l 1,30,-1
 196 30 l 1,31,-1
 315 20 l 1,32,-1
 315 0 l 1,33,-1
 26 0 l 1,0,-1
EndSplineSet
EndChar

StartChar: g
Encoding: 103 103 61
Width: 539
GlyphClass: 2
Flags: HMW
LayerCount: 2
Fore
SplineSet
381 -27 m 2,0,-1
 186 -27 l 2,1,2
 45 -27 45 -27 45 72 c 0,3,4
 45 117 45 117 69.5 146 c 128,-1,5
 94 175 94 175 136 183 c 1,6,7
 58 234 58 234 58 338 c 0,8,9
 58 426 58 426 116 476.5 c 128,-1,10
 174 527 174 527 259 527 c 0,11,12
 344 527 344 527 400 483 c 1,13,14
 438 486 438 486 457 501.5 c 128,-1,15
 476 517 476 517 476 536 c 0,16,17
 476 555 476 555 466 564.5 c 128,-1,18
 456 574 456 574 442 574 c 1,19,20
 442 599 442 599 460.5 617 c 128,-1,21
 479 635 479 635 505 635 c 0,22,23
 531 635 531 635 549 618.5 c 128,-1,24
 567 602 567 602 567 574 c 0,25,26
 567 531 567 531 531.5 501 c 128,-1,27
 496 471 496 471 419 465 c 1,28,29
 466 415 466 415 466 333 c 0,30,31
 466 251 466 251 408 200.5 c 128,-1,32
 350 150 350 150 261 150 c 0,33,34
 204 150 204 150 163 169 c 1,35,36
 133 167 133 167 114.5 154 c 128,-1,37
 96 141 96 141 96 117.5 c 0,38,39
 96 94 96 94 121.5 81.5 c 128,-1,40
 147 69 147 69 186 69 c 2,41,-1
 351 69 l 2,42,43
 431 69 431 69 472 38 c 128,-1,44
 513 7 513 7 513 -67 c 0,45,46
 513 -163 513 -163 447.5 -227.5 c 128,-1,47
 382 -292 382 -292 260 -292 c 0,48,49
 138 -292 138 -292 76.5 -253.5 c 128,-1,50
 15 -215 15 -215 15 -152 c 0,51,52
 15 -115 15 -115 41 -87.5 c 128,-1,53
 67 -60 67 -60 112 -60 c 0,54,55
 121 -60 121 -60 149 -64 c 1,56,57
 118 -97 118 -97 118 -146.5 c 0,58,59
 118 -196 118 -196 153.5 -234.5 c 128,-1,60
 189 -273 189 -273 276 -273 c 0,61,62
 363 -273 363 -273 423.5 -222.5 c 128,-1,63
 484 -172 484 -172 484 -109 c 0,64,65
 484 -66 484 -66 462 -46.5 c 128,-1,66
 440 -27 440 -27 381 -27 c 2,0,-1
372 314 m 2,67,-1
 372 363 l 2,68,69
 372 510 372 510 261 510 c 0,70,71
 152 510 152 510 152 363 c 2,72,-1
 152 314 l 2,73,74
 152 245 152 245 179 206 c 128,-1,75
 206 167 206 167 261.5 167 c 0,76,77
 317 167 317 167 344.5 206 c 128,-1,78
 372 245 372 245 372 314 c 2,67,-1
EndSplineSet
EndChar

StartChar: h
Encoding: 104 104 62
Width: 627
GlyphClass: 2
Flags: HMW
LayerCount: 2
Fore
SplineSet
20 780 m 1,0,-1
 20 800 l 1,1,-1
 190 800 l 1,2,-1
 190 410 l 1,3,4
 271 527 271 527 385 527 c 0,5,6
 457 527 457 527 498.5 491 c 128,-1,7
 540 455 540 455 540 384 c 2,8,-1
 540 30 l 1,9,-1
 610 20 l 1,10,-1
 610 0 l 1,11,-1
 380 0 l 1,12,-1
 380 20 l 1,13,-1
 440 30 l 1,14,-1
 440 382 l 2,15,16
 440 491 440 491 354 491 c 0,17,18
 308 491 308 491 265.5 457.5 c 128,-1,19
 223 424 223 424 190 375 c 1,20,-1
 190 30 l 1,21,-1
 250 20 l 1,22,-1
 250 0 l 1,23,-1
 20 0 l 1,24,-1
 20 20 l 1,25,-1
 90 30 l 1,26,-1
 90 770 l 1,27,-1
 20 780 l 1,0,-1
EndSplineSet
EndChar

StartChar: i
Encoding: 105 105 63
Width: 287
GlyphClass: 2
Flags: HMW
LayerCount: 2
Fore
SplineSet
84.5 748 m 128,-1,1
 104 767 104 767 132 767 c 128,-1,2
 160 767 160 767 179 748 c 128,-1,3
 198 729 198 729 198 701 c 128,-1,4
 198 673 198 673 179 653.5 c 128,-1,5
 160 634 160 634 132.5 634 c 128,-1,6
 105 634 105 634 85 653.5 c 128,-1,7
 65 673 65 673 65 701 c 128,-1,0
 65 729 65 729 84.5 748 c 128,-1,1
27 497 m 1,8,-1
 27 517 l 1,9,-1
 197 517 l 1,10,-1
 197 30 l 1,11,-1
 267 20 l 1,12,-1
 267 0 l 1,13,-1
 27 0 l 1,14,-1
 27 20 l 1,15,-1
 97 30 l 1,16,-1
 97 487 l 1,17,-1
 27 497 l 1,8,-1
EndSplineSet
EndChar

StartChar: j
Encoding: 106 106 64
Width: 266
GlyphClass: 2
Flags: HMW
LayerCount: 2
Fore
SplineSet
87 -195 m 0,0,1
 36 -195 36 -195 2.5 -166.5 c 128,-1,2
 -31 -138 -31 -138 -31 -89 c 0,3,4
 -31 -59 -31 -59 -14 -40 c 128,-1,5
 3 -21 3 -21 29 -21 c 128,-1,6
 55 -21 55 -21 71 -34.5 c 128,-1,7
 87 -48 87 -48 90 -61 c 2,8,-1
 94 -74 l 1,9,10
 62 -95 62 -95 62 -127 c 0,11,12
 62 -168 62 -168 103 -168 c 0,13,14
 129 -168 129 -168 144.5 -146.5 c 128,-1,15
 160 -125 160 -125 160 -84 c 128,-1,16
 160 -43 160 -43 124.5 18.5 c 128,-1,17
 89 80 89 80 89 133 c 2,18,-1
 89 488 l 1,19,-1
 14 498 l 1,20,-1
 14 518 l 1,21,-1
 189 518 l 1,22,-1
 189 -57 l 2,23,24
 189 -195 189 -195 87 -195 c 0,0,1
78.5 748 m 128,-1,26
 98 767 98 767 126 767 c 128,-1,27
 154 767 154 767 173 748 c 128,-1,28
 192 729 192 729 192 701 c 128,-1,29
 192 673 192 673 173 653.5 c 128,-1,30
 154 634 154 634 126.5 634 c 128,-1,31
 99 634 99 634 79 653.5 c 128,-1,32
 59 673 59 673 59 701 c 128,-1,25
 59 729 59 729 78.5 748 c 128,-1,26
EndSplineSet
EndChar

StartChar: k
Encoding: 107 107 65
Width: 566
GlyphClass: 2
Flags: HMW
LayerCount: 2
Fore
SplineSet
20 0 m 1,0,-1
 20 20 l 1,1,-1
 90 30 l 1,2,-1
 90 770 l 1,3,-1
 20 780 l 1,4,-1
 20 800 l 1,5,-1
 190 800 l 1,6,-1
 190 287 l 1,7,-1
 419 475 l 1,8,-1
 332 498 l 1,9,-1
 332 518 l 1,10,-1
 520 518 l 1,11,-1
 520 498 l 1,12,-1
 456 475 l 1,13,-1
 290 339 l 1,14,-1
 524 29 l 1,15,-1
 578 20 l 1,16,-1
 578 0 l 1,17,-1
 344 0 l 1,18,-1
 344 20 l 1,19,-1
 404 30 l 1,20,-1
 216 278 l 1,21,-1
 190 256 l 1,22,-1
 190 30 l 1,23,-1
 250 20 l 1,24,-1
 250 0 l 1,25,-1
 20 0 l 1,0,-1
EndSplineSet
EndChar

StartChar: l
Encoding: 108 108 66
Width: 283
GlyphClass: 2
Flags: HMW
LayerCount: 2
Fore
SplineSet
18 780 m 1,0,-1
 18 800 l 1,1,-1
 193 800 l 1,2,-1
 193 30 l 1,3,-1
 263 20 l 1,4,-1
 263 0 l 1,5,-1
 18 0 l 1,6,-1
 18 20 l 1,7,-1
 93 30 l 1,8,-1
 93 770 l 1,9,-1
 18 780 l 1,0,-1
EndSplineSet
EndChar

StartChar: m
Encoding: 109 109 67
Width: 944
GlyphClass: 2
Flags: HMW
LayerCount: 2
Fore
SplineSet
366 0 m 1,0,-1
 366 20 l 1,1,-1
 426 30 l 1,2,-1
 426 382 l 2,3,4
 426 491 426 491 345 491 c 0,5,6
 267 491 267 491 196 391 c 1,7,-1
 196 30 l 1,8,-1
 256 20 l 1,9,-1
 256 0 l 1,10,-1
 26 0 l 1,11,-1
 26 20 l 1,12,-1
 96 30 l 1,13,-1
 96 488 l 1,14,-1
 26 498 l 1,15,-1
 26 518 l 1,16,-1
 196 518 l 1,17,-1
 196 426 l 1,18,19
 273 527 273 527 376 527 c 0,20,21
 503 527 503 527 524 421 c 1,22,23
 601 527 601 527 707 527 c 0,24,25
 778 527 778 527 817.5 491.5 c 128,-1,26
 857 456 857 456 857 384 c 2,27,-1
 857 30 l 1,28,-1
 927 20 l 1,29,-1
 927 0 l 1,30,-1
 697 0 l 1,31,-1
 697 20 l 1,32,-1
 757 30 l 1,33,-1
 757 382 l 2,34,35
 757 491 757 491 676 491 c 0,36,37
 598 491 598 491 527 391 c 1,38,-1
 527 30 l 1,39,-1
 587 20 l 1,40,-1
 587 0 l 1,41,-1
 366 0 l 1,0,-1
EndSplineSet
EndChar

StartChar: n
Encoding: 110 110 68
Width: 633
GlyphClass: 2
Flags: HMW
LayerCount: 2
Fore
SplineSet
386 0 m 1,0,-1
 386 20 l 1,1,-1
 446 30 l 1,2,-1
 446 382 l 2,3,4
 446 491 446 491 360 491 c 0,5,6
 314 491 314 491 271.5 457.5 c 128,-1,7
 229 424 229 424 196 375 c 1,8,-1
 196 30 l 1,9,-1
 256 20 l 1,10,-1
 256 0 l 1,11,-1
 26 0 l 1,12,-1
 26 20 l 1,13,-1
 96 30 l 1,14,-1
 96 488 l 1,15,-1
 26 498 l 1,16,-1
 26 518 l 1,17,-1
 196 518 l 1,18,-1
 196 410 l 1,19,20
 277 527 277 527 391 527 c 0,21,22
 463 527 463 527 504.5 491 c 128,-1,23
 546 455 546 455 546 384 c 2,24,-1
 546 30 l 1,25,-1
 616 20 l 1,26,-1
 616 0 l 1,27,-1
 386 0 l 1,0,-1
EndSplineSet
EndChar

StartChar: o
Encoding: 111 111 69
Width: 600
GlyphClass: 2
Flags: HMW
LayerCount: 2
Fore
SplineSet
449 209 m 2,0,-1
 449 309 l 2,1,2
 449 399 449 399 412 452 c 128,-1,3
 375 505 375 505 300 505 c 256,4,5
 225 505 225 505 188 452 c 128,-1,6
 151 399 151 399 151 309 c 2,7,-1
 151 209 l 2,8,9
 151 120 151 120 188.5 66 c 128,-1,10
 226 12 226 12 300 12 c 256,11,12
 374 12 374 12 411.5 66 c 128,-1,13
 449 120 449 120 449 209 c 2,0,-1
115 64 m 1,14,15
 41 140 41 140 41 259 c 0,16,17
 41 377.428571429 41 377.428571429 116 453.5 c 0,18,19
 188.464788732 527 188.464788732 527 300 527 c 0,20,21
 410.549295775 527 410.549295775 527 484 452.5 c 0,22,23
 559 376.428571429 559 376.428571429 559 259 c 256,24,25
 559 142.15942029 559 142.15942029 484.5 65.5 c 0,26,27
 411.126760563 -10 411.126760563 -10 301.063380282 -10 c 128,-1,28
 191 -10 191 -10 115 64 c 1,14,15
EndSplineSet
EndChar

StartChar: p
Encoding: 112 112 70
Width: 640
GlyphClass: 2
Flags: HMW
LayerCount: 2
Fore
SplineSet
190 518 m 1,0,-1
 190 412 l 1,1,2
 243 527 243 527 355 527 c 0,3,4
 467 527 467 527 532.5 453.5 c 128,-1,5
 598 380 598 380 598 258 c 128,-1,6
 598 136 598 136 532.5 63 c 128,-1,7
 467 -10 467 -10 355.5 -10 c 0,8,9
 244 -10 244 -10 190 104 c 1,10,-1
 190 -253 l 1,11,-1
 284 -263 l 1,12,-1
 284 -283 l 1,13,-1
 20 -283 l 1,14,-1
 20 -263 l 1,15,-1
 90 -253 l 1,16,-1
 90 488 l 1,17,-1
 20 498 l 1,18,-1
 20 518 l 1,19,-1
 190 518 l 1,0,-1
488 208 m 2,20,-1
 488 308 l 2,21,22
 488 502 488 502 349 502 c 0,23,24
 282 502 282 502 237 447 c 128,-1,25
 192 392 192 392 190 315 c 1,26,-1
 190 208 l 2,27,28
 190 129 190 129 235.5 72 c 128,-1,29
 281 15 281 15 349 15 c 0,30,31
 488 15 488 15 488 208 c 2,20,-1
EndSplineSet
EndChar

StartChar: q
Encoding: 113 113 71
Width: 640
GlyphClass: 2
Flags: HMW
LayerCount: 2
Fore
SplineSet
450 -253 m 1,0,-1
 450 104 l 1,1,2
 396 -10 396 -10 284.5 -10 c 0,3,4
 173 -10 173 -10 107.5 63 c 128,-1,5
 42 136 42 136 42 258 c 128,-1,6
 42 380 42 380 107.5 453.5 c 128,-1,7
 173 527 173 527 285 527 c 0,8,9
 397 527 397 527 450 412 c 1,10,-1
 450 518 l 1,11,-1
 620 518 l 1,12,-1
 620 498 l 1,13,-1
 550 488 l 1,14,-1
 550 -253 l 1,15,-1
 620 -263 l 1,16,-1
 620 -283 l 1,17,-1
 331 -283 l 1,18,-1
 331 -263 l 1,19,-1
 450 -253 l 1,0,-1
152 308 m 2,20,-1
 152 208 l 2,21,22
 152 15 152 15 291 15 c 0,23,24
 357 15 357 15 402.5 69.5 c 128,-1,25
 448 124 448 124 450 200 c 1,26,-1
 450 315 l 1,27,28
 448 392 448 392 402.5 447 c 128,-1,29
 357 502 357 502 291 502 c 0,30,31
 152 502 152 502 152 308 c 2,20,-1
EndSplineSet
EndChar

StartChar: r
Encoding: 114 114 72
Width: 441
GlyphClass: 2
Flags: HMW
LayerCount: 2
Fore
SplineSet
26 0 m 1,0,-1
 26 20 l 1,1,-1
 96 30 l 1,2,-1
 96 488 l 1,3,-1
 26 498 l 1,4,-1
 26 518 l 1,5,-1
 196 518 l 1,6,-1
 196 441 l 1,7,8
 259 527 259 527 338 527 c 0,9,10
 376 527 376 527 405 507.5 c 128,-1,11
 434 488 434 488 434 457 c 0,12,13
 434 426 434 426 417 408.5 c 128,-1,14
 400 391 400 391 370 391 c 0,15,16
 340 391 340 391 320 416 c 1,17,18
 331 430 331 430 331 446.5 c 0,19,20
 331 463 331 463 319.5 473.5 c 128,-1,21
 308 484 308 484 289 484 c 0,22,23
 251 484 251 484 196 404 c 1,24,-1
 196 30 l 1,25,-1
 276 20 l 1,26,-1
 276 0 l 1,27,-1
 26 0 l 1,0,-1
EndSplineSet
EndChar

StartChar: s
Encoding: 115 115 73
Width: 472
GlyphClass: 2
Flags: HMW
LayerCount: 2
Fore
SplineSet
243 -10 m 0,0,1
 41 -10 41 -10 41 101 c 0,2,3
 41 130 41 130 58.5 151 c 128,-1,4
 76 172 76 172 99.5 172 c 0,5,6
 146.736842105 172 146.736842105 172 160 130 c 1,7,8
 143 111 143 111 143 88 c 0,9,10
 143 49 143 49 169 29 c 128,-1,11
 195 9 195 9 250 9 c 128,-1,12
 305 9 305 9 345.5 37.5 c 128,-1,13
 386 66 386 66 386 104.5 c 128,-1,14
 386 143 386 143 358.5 162 c 128,-1,15
 331 181 331 181 268 201 c 2,16,-1
 139 242 l 1,17,18
 49 268 49 268 49 374 c 0,19,20
 49 440 49 440 100.5 483.5 c 128,-1,21
 152 527 152 527 235 527 c 128,-1,22
 318 527 318 527 365 498.5 c 128,-1,23
 412 470 412 470 412 424 c 0,24,25
 412 398 412 398 396 380.5 c 128,-1,26
 380 363 380 363 357 363 c 128,-1,27
 334 363 334 363 320.5 374.5 c 128,-1,28
 307 386 307 386 307 406 c 1,29,30
 328 420 328 420 328 445 c 0,31,32
 328 508 328 508 237 508 c 0,33,34
 172 508 172 508 134 482 c 128,-1,35
 96 456 96 456 96 422.5 c 128,-1,36
 96 389 96 389 109.5 374 c 128,-1,37
 123 359 123 359 162 346 c 2,38,-1
 321 297 l 2,39,40
 378 279 378 279 403.5 243.5 c 128,-1,41
 429 208 429 208 429 147 c 128,-1,42
 429 86 429 86 382.5 38 c 128,-1,43
 336 -10 336 -10 243 -10 c 0,0,1
EndSplineSet
EndChar

StartChar: t
Encoding: 116 116 74
Width: 346
GlyphClass: 2
Flags: HMW
LayerCount: 2
Fore
SplineSet
318 518 m 1,0,-1
 318 498 l 1,1,-1
 188 488 l 1,2,-1
 188 130 l 2,3,4
 188 24 188 24 264 24 c 0,5,6
 298.666666667 24 298.666666667 24 328 46 c 1,7,-1
 341 30 l 1,8,9
 296 -10 296 -10 233 -10 c 0,10,11
 88 -10 88 -10 88 128 c 2,12,-1
 88 488 l 1,13,-1
 17 498 l 1,14,-1
 17 518 l 1,15,-1
 88 518 l 1,16,-1
 88 601 l 1,17,-1
 188 626 l 1,18,-1
 188 518 l 1,19,-1
 318 518 l 1,0,-1
EndSplineSet
EndChar

StartChar: u
Encoding: 117 117 75
Width: 626
GlyphClass: 2
Flags: HMW
LayerCount: 2
Fore
SplineSet
186 518 m 1,0,-1
 186 135 l 2,1,2
 186 26 186 26 272 26 c 256,3,4
 358 26 358 26 436 132 c 1,5,-1
 436 488 l 1,6,-1
 366 498 l 1,7,-1
 366 518 l 1,8,-1
 536 518 l 1,9,-1
 536 30 l 1,10,-1
 606 20 l 1,11,-1
 606 0 l 1,12,-1
 436 0 l 1,13,-1
 436 96 l 1,14,15
 358 -10 358 -10 241 -10 c 0,16,17
 169 -10 169 -10 127.5 25.5 c 128,-1,18
 86 61 86 61 86 133 c 2,19,-1
 86 488 l 1,20,-1
 16 498 l 1,21,-1
 16 518 l 1,22,-1
 186 518 l 1,0,-1
EndSplineSet
EndChar

StartChar: v
Encoding: 118 118 76
Width: 531
GlyphClass: 2
Flags: HMW
LayerCount: 2
Fore
SplineSet
294 -20 m 1,0,-1
 266 -20 l 1,1,-1
 52 488 l 1,2,-1
 -13 498 l 1,3,-1
 -13 518 l 1,4,-1
 236 518 l 1,5,-1
 236 498 l 1,6,-1
 164 485 l 1,7,-1
 315 109 l 1,8,-1
 450 472 l 1,9,-1
 362 497 l 1,10,-1
 362 517 l 1,11,-1
 541 517 l 1,12,-1
 541 497 l 1,13,-1
 478 473 l 1,14,-1
 294 -20 l 1,0,-1
EndSplineSet
EndChar

StartChar: w
Encoding: 119 119 77
Width: 823
GlyphClass: 2
Flags: HMW
LayerCount: 2
Fore
SplineSet
587 -20 m 1,0,-1
 559 -20 l 1,1,-1
 418 318 l 1,2,-1
 294 -20 l 1,3,-1
 266 -20 l 1,4,-1
 52 488 l 1,5,-1
 -13 498 l 1,6,-1
 -13 518 l 1,7,-1
 211 518 l 1,8,-1
 211 498 l 1,9,-1
 164 485 l 1,10,-1
 315 109 l 1,11,-1
 404 352 l 1,12,-1
 345 488 l 1,13,-1
 293 498 l 1,14,-1
 293 518 l 1,15,-1
 529 518 l 1,16,-1
 529 498 l 1,17,-1
 457 485 l 1,18,-1
 608 109 l 1,19,-1
 743 471 l 1,20,-1
 659 497 l 1,21,-1
 659 517 l 1,22,-1
 833 517 l 1,23,-1
 833 497 l 1,24,-1
 771 473 l 1,25,-1
 587 -20 l 1,0,-1
EndSplineSet
EndChar

StartChar: x
Encoding: 120 120 78
Width: 597
GlyphClass: 2
Flags: HMW
LayerCount: 2
Fore
SplineSet
13 0 m 1,0,-1
 13 20 l 1,1,-1
 80 45 l 1,2,-1
 249 245 l 1,3,-1
 61 489 l 1,4,-1
 1 498 l 1,5,-1
 1 518 l 1,6,-1
 245 518 l 1,7,-1
 245 498 l 1,8,-1
 183 487 l 1,9,-1
 319 311 l 1,10,-1
 461 474 l 1,11,-1
 382 497 l 1,12,-1
 382 517 l 1,13,-1
 566 517 l 1,14,-1
 566 497 l 1,15,-1
 493 471 l 1,16,-1
 335 290 l 1,17,-1
 537 29 l 1,18,-1
 600 20 l 1,19,-1
 600 0 l 1,20,-1
 356 0 l 1,21,-1
 356 20 l 1,22,-1
 415 30 l 1,23,-1
 266 223 l 1,24,-1
 111 43 l 1,25,-1
 192 20 l 1,26,-1
 192 0 l 1,27,-1
 13 0 l 1,0,-1
EndSplineSet
EndChar

StartChar: y
Encoding: 121 121 79
Width: 536
GlyphClass: 2
Flags: HMW
LayerCount: 2
Fore
SplineSet
546 517 m 1,0,-1
 546 497 l 1,1,-1
 478 472 l 1,2,-1
 254 -179 l 2,3,4
 233 -238 233 -238 203.5 -265 c 128,-1,5
 174 -292 174 -292 120.5 -292 c 0,6,7
 67 -292 67 -292 35 -266 c 128,-1,8
 3 -240 3 -240 3 -203 c 0,9,10
 3 -166 3 -166 20.5 -147.5 c 128,-1,11
 38 -129 38 -129 64 -129 c 0,12,13
 105 -129 105 -129 122 -161 c 1,14,15
 107 -182 107 -182 107 -203.5 c 0,16,17
 107 -225 107 -225 120 -238 c 128,-1,18
 133 -251 133 -251 153 -251 c 0,19,20
 201 -251 201 -251 226 -179 c 2,21,-1
 286 -7 l 1,22,-1
 54 487 l 1,23,-1
 -13 497 l 1,24,-1
 -13 517 l 1,25,-1
 236 517 l 1,26,-1
 236 497 l 1,27,-1
 166 485 l 1,28,-1
 333 128 l 1,29,-1
 452 472 l 1,30,-1
 366 497 l 1,31,-1
 366 517 l 1,32,-1
 546 517 l 1,0,-1
EndSplineSet
EndChar

StartChar: z
Encoding: 122 122 80
Width: 513
GlyphClass: 2
Flags: HMW
LayerCount: 2
Fore
SplineSet
75 368 m 1,0,-1
 44 368 l 1,1,-1
 55 518 l 1,2,-1
 464 518 l 1,3,-1
 464 493 l 1,4,-1
 154 24 l 1,5,-1
 375 24 l 1,6,-1
 441 161 l 1,7,-1
 475 161 l 1,8,-1
 463 0 l 1,9,-1
 37 0 l 1,10,-1
 37 24 l 1,11,-1
 347 493 l 1,12,-1
 135 493 l 1,13,-1
 75 368 l 1,0,-1
EndSplineSet
EndChar

StartChar: braceleft
Encoding: 123 123 81
Width: 313
GlyphClass: 2
Flags: HMW
LayerCount: 2
Fore
SplineSet
225 531 m 0,0,1
 225 462 225 462 187 416.5 c 128,-1,2
 149 371 149 371 79 356 c 1,3,4
 149 342 149 342 187 296.5 c 128,-1,5
 225 251 225 251 225 182 c 0,6,7
 225 156 225 156 215.5 60 c 128,-1,8
 206 -36 206 -36 206 -63 c 0,9,10
 206 -124 206 -124 225 -149.5 c 128,-1,11
 244 -175 244 -175 290 -175 c 1,12,-1
 290 -194 l 1,13,14
 201 -194 201 -194 155 -159.5 c 128,-1,15
 109 -125 109 -125 109 -46 c 0,16,17
 109 -13 109 -13 119.5 76.5 c 128,-1,18
 130 166 130 166 130 196 c 0,19,20
 130 348 130 348 12 348 c 1,21,-1
 12 365 l 1,22,23
 130 365 130 365 130 517 c 0,24,25
 130 547 130 547 119.5 636.5 c 128,-1,26
 109 726 109 726 109 760 c 0,27,28
 109 839 109 839 155 873 c 128,-1,29
 201 907 201 907 290 907 c 1,30,-1
 290 889 l 1,31,32
 244 889 244 889 225 863.5 c 128,-1,33
 206 838 206 838 206 777 c 0,34,35
 206 749 206 749 215.5 653 c 128,-1,36
 225 557 225 557 225 531 c 0,0,1
EndSplineSet
EndChar

StartChar: bar
Encoding: 124 124 82
Width: 211
GlyphClass: 2
Flags: HMW
LayerCount: 2
Fore
SplineSet
123 760 m 1,0,-1
 123 -240 l 1,1,-1
 88 -240 l 1,2,-1
 88 760 l 1,3,-1
 123 760 l 1,0,-1
EndSplineSet
EndChar

StartChar: asciitilde
Encoding: 126 126 84
Width: 531
GlyphClass: 2
Flags: HMW
LayerCount: 2
Fore
SplineSet
449 313 m 1,0,-1
 485 302 l 1,1,2
 482.333333333 288.666666667 482.333333333 288.666666667 469.166666667 262.333333333 c 128,-1,3
 456 236 456 236 443.5 219.5 c 128,-1,4
 431 203 431 203 409.5 189.5 c 128,-1,5
 388 176 388 176 365 176 c 128,-1,6
 342 176 342 176 320 187 c 128,-1,7
 298 198 298 198 286 209 c 128,-1,8
 274 220 274 220 255 241 c 128,-1,9
 236 262 236 262 226 271 c 0,10,11
 194.888888889 299 194.888888889 299 168.944444444 299 c 128,-1,12
 143 299 143 299 122.5 274.5 c 128,-1,13
 102 250 102 250 94 226 c 2,14,-1
 85 201 l 1,15,16
 48 212 48 212 47 212 c 1,17,18
 49.7313432836 225.656716418 49.7313432836 225.656716418 62.8656716418 251.328358209 c 128,-1,19
 76 277 76 277 88.5 293.5 c 128,-1,20
 101 310 101 310 122.5 323.5 c 128,-1,21
 144 337 144 337 167.5 337 c 128,-1,22
 191 337 191 337 213 326 c 128,-1,23
 235 315 235 315 248 303.5 c 128,-1,24
 261 292 261 292 279.5 271.5 c 128,-1,25
 298 251 298 251 308 242 c 0,26,27
 339.111111111 214 339.111111111 214 364 214 c 0,28,29
 412 214 412 214 443 296 c 1,30,-1
 449 313 l 1,0,-1
EndSplineSet
EndChar

StartChar: sterling
Encoding: 163 163 85
Width: 632
GlyphClass: 2
Flags: HMW
LayerCount: 2
Fore
SplineSet
63 409 m 1,0,-1
 63 447 l 1,1,-1
 171 447 l 1,2,3
 163 459 163 459 140 490.5 c 128,-1,4
 117 522 117 522 106 539 c 128,-1,5
 95 556 95 556 84.5 585.5 c 128,-1,6
 74 615 74 615 74 644 c 0,7,8
 74 717 74 717 138 768.5 c 128,-1,9
 202 820 202 820 313 820 c 128,-1,10
 424 820 424 820 496.5 767.5 c 128,-1,11
 569 715 569 715 569 634 c 0,12,13
 569 593 569 593 546 569.5 c 128,-1,14
 523 546 523 546 492 546 c 128,-1,15
 461 546 461 546 439.5 565 c 128,-1,16
 418 584 418 584 418 620 c 1,17,18
 470 645 470 645 470 694 c 128,-1,19
 470 743 470 743 431.5 770 c 128,-1,20
 393 797 393 797 336 797 c 128,-1,21
 279 797 279 797 240.5 760.5 c 128,-1,22
 202 724 202 724 202 661 c 0,23,24
 202 589.411764706 202 589.411764706 237 505 c 0,25,26
 254 464 254 464 260 447 c 1,27,-1
 424 447 l 1,28,-1
 424 409 l 1,29,-1
 269 409 l 1,30,31
 274 382 274 382 274 359 c 128,-1,32
 274 336 274 336 271 320 c 1,33,-1
 424 320 l 1,34,-1
 424 283 l 1,35,-1
 263 283 l 1,36,37
 252 245 252 245 225 207.5 c 128,-1,38
 198 170 198 170 184.5 157 c 128,-1,39
 171 144 171 144 135 112 c 1,40,-1
 480 112 l 1,41,-1
 541 273 l 1,42,-1
 568 273 l 1,43,-1
 568 0 l 1,44,-1
 65 0 l 1,45,-1
 65 77 l 1,46,47
 68 80 68 80 96.5 108 c 128,-1,48
 125 136 125 136 134 147 c 128,-1,49
 143 158 143 158 162.5 183 c 0,50,51
 196.570361146 226.679950187 196.570361146 226.679950187 207 283 c 1,52,-1
 63 283 l 1,53,-1
 63 320 l 1,54,-1
 212 320 l 1,55,-1
 212 329 l 2,56,57
 212 369 212 369 192 409 c 1,58,-1
 63 409 l 1,0,-1
EndSplineSet
EndChar

StartChar: brokenbar
Encoding: 166 166 86
Width: 220
GlyphClass: 2
Flags: HMW
LayerCount: 2
Fore
SplineSet
130 760 m 1,0,-1
 130 360 l 1,1,-1
 90 360 l 1,2,-1
 90 760 l 1,3,-1
 130 760 l 1,0,-1
130 160 m 1,4,-1
 130 -240 l 1,5,-1
 90 -240 l 1,6,-1
 90 160 l 1,7,-1
 130 160 l 1,4,-1
EndSplineSet
EndChar

StartChar: section
Encoding: 167 167 87
Width: 523
GlyphClass: 2
Flags: HMW
LayerCount: 2
Fore
SplineSet
53 328 m 0,0,1
 53 388 53 388 75 428 c 128,-1,2
 97 468 97 468 139 503 c 1,3,4
 68 559 68 559 68 643 c 0,5,6
 68 727 68 727 115 768.5 c 128,-1,7
 162 810 162 810 249.5 810 c 0,8,9
 337 810 337 810 390.5 778 c 128,-1,10
 444 746 444 746 444 695 c 0,11,12
 444 666 444 666 426 646.5 c 128,-1,13
 408 627 408 627 383 627 c 0,14,15
 358 627 358 627 342.5 640 c 128,-1,16
 327 653 327 653 327 675 c 1,17,18
 351 691 351 691 351 720 c 0,19,20
 351 749 351 749 320.5 769.5 c 128,-1,21
 290 790 290 790 239 790 c 0,22,23
 188 790 188 790 148.5 764.5 c 128,-1,24
 109 739 109 739 109 691 c 0,25,26
 109 660 109 660 123.5 635.5 c 128,-1,27
 138 611 138 611 152 600 c 128,-1,28
 166 589 166 589 193 572 c 1,29,-1
 364 490 l 2,30,31
 473 437 473 437 473 344 c 0,32,33
 473 238 473 238 386 163 c 1,34,35
 454 107 454 107 454 26.5 c 0,36,37
 454 -54 454 -54 405.5 -95.5 c 128,-1,38
 357 -137 357 -137 268.5 -137 c 0,39,40
 180 -137 180 -137 126 -105.5 c 128,-1,41
 72 -74 72 -74 72 -23 c 0,42,43
 72 6 72 6 90 25.5 c 128,-1,44
 108 45 108 45 133.5 45 c 0,45,46
 159 45 159 45 174 32 c 128,-1,47
 189 19 189 19 189 -2 c 1,48,49
 165 -20 165 -20 165 -48.5 c 0,50,51
 165 -77 165 -77 196 -97 c 128,-1,52
 227 -117 227 -117 278.5 -117 c 0,53,54
 330 -117 330 -117 371 -91.5 c 128,-1,55
 412 -66 412 -66 412 -19 c 0,56,57
 412 12 412 12 397 36.5 c 128,-1,58
 382 61 382 61 367 72.5 c 128,-1,59
 352 84 352 84 323 101 c 1,60,-1
 153 183 l 1,61,62
 53 235 53 235 53 328 c 0,0,1
361 181 m 2,63,64
 362 180 362 180 365 178.5 c 128,-1,65
 368 177 368 177 369 176 c 1,66,67
 435 234 435 234 435 301 c 0,68,69
 435 335 435 335 406.5 360 c 128,-1,70
 378 385 378 385 315 415 c 2,71,-1
 157 491 l 1,72,73
 123 460 123 460 107 433 c 128,-1,74
 91 406 91 406 91 372 c 128,-1,75
 91 338 91 338 117 312.5 c 128,-1,76
 143 287 143 287 201 257 c 1,77,-1
 361 181 l 2,63,64
EndSplineSet
EndChar

StartChar: dieresis
Encoding: 168 168 88
Width: 391
GlyphClass: 2
Flags: HMW
LayerCount: 2
Fore
SplineSet
60 632 m 0,0,1
 43 649 43 649 43 674 c 128,-1,2
 43 699 43 699 60.5 716 c 128,-1,3
 78 733 78 733 103 733 c 128,-1,4
 128 733 128 733 145 716 c 128,-1,5
 162 699 162 699 162 674 c 128,-1,6
 162 649 162 649 145 632 c 128,-1,7
 128 615 128 615 103 615 c 128,-1,8
 78 615 78 615 60 632 c 0,0,1
246 632 m 256,9,10
 229 649 229 649 229 674 c 128,-1,11
 229 699 229 699 246 716 c 128,-1,12
 263 733 263 733 288 733 c 128,-1,13
 313 733 313 733 330 716 c 128,-1,14
 347 699 347 699 347 674 c 128,-1,15
 347 649 347 649 330 632 c 128,-1,16
 313 615 313 615 288 615 c 128,-1,17
 263 615 263 615 246 632 c 256,9,10
EndSplineSet
EndChar

StartChar: copyright
Encoding: 169 169 89
Width: 918
GlyphClass: 2
Flags: HMW
LayerCount: 2
Fore
SplineSet
81.5 240.5 m 128,-1,1
 49 315 49 315 49 399.5 c 128,-1,2
 49 484 49 484 81.5 558.5 c 128,-1,3
 114 633 114 633 170 689 c 128,-1,4
 226 745 226 745 300.5 777.5 c 128,-1,5
 375 810 375 810 459 810 c 256,6,7
 543 810 543 810 617.5 777 c 128,-1,8
 692 744 692 744 748 688 c 128,-1,9
 804 632 804 632 836.5 557.5 c 128,-1,10
 869 483 869 483 869 399 c 256,11,12
 869 315 869 315 836.5 240.5 c 128,-1,13
 804 166 804 166 748 110.5 c 128,-1,14
 692 55 692 55 617.5 22.5 c 128,-1,15
 543 -10 543 -10 459 -10 c 256,16,17
 375 -10 375 -10 300.5 22.5 c 128,-1,18
 226 55 226 55 170 110.5 c 128,-1,0
 114 166 114 166 81.5 240.5 c 128,-1,1
116 543.5 m 128,-1,20
 87 476 87 476 87 398.5 c 128,-1,21
 87 321 87 321 116 253.5 c 128,-1,22
 145 186 145 186 195.5 135.5 c 128,-1,23
 246 85 246 85 313.5 56 c 128,-1,24
 381 27 381 27 459 27 c 256,25,26
 537 27 537 27 604.5 56.5 c 128,-1,27
 672 86 672 86 722 136.5 c 128,-1,28
 772 187 772 187 801 254.5 c 128,-1,29
 830 322 830 322 830 399 c 256,30,31
 830 476 830 476 801 543.5 c 128,-1,32
 772 611 772 611 722 661.5 c 128,-1,33
 672 712 672 712 604.5 741.5 c 128,-1,34
 537 771 537 771 459.5 771 c 128,-1,35
 382 771 382 771 314 741.5 c 128,-1,36
 246 712 246 712 195.5 661.5 c 128,-1,19
 145 611 145 611 116 543.5 c 128,-1,20
610 662 m 1,37,-1
 629 662 l 1,38,-1
 629 504 l 1,39,-1
 610 504 l 1,40,-1
 571 588 l 1,41,42
 526 633 526 633 460 633 c 0,43,44
 319 633 319 633 319 458 c 2,45,-1
 319 341 l 2,46,47
 319 167 319 167 460 167 c 0,48,49
 492 167 492 167 525 182 c 128,-1,50
 558 197 558 197 580 221 c 1,51,-1
 616 309 l 1,52,-1
 635 309 l 1,53,-1
 635 144 l 1,54,-1
 616 144 l 1,55,-1
 570 177 l 1,56,57
 521 138 521 138 460 138 c 0,58,59
 354 138 354 138 288.5 210.5 c 128,-1,60
 223 283 223 283 223 400 c 128,-1,61
 223 517 223 517 288.5 589.5 c 128,-1,62
 354 662 354 662 460 662 c 0,63,64
 516 662 516 662 567 625 c 1,65,-1
 610 662 l 1,37,-1
EndSplineSet
EndChar

StartChar: ordfeminine
Encoding: 170 170 90
Width: 499
GlyphClass: 2
Flags: HMW
LayerCount: 2
Fore
SplineSet
282 624 m 2,0,-1
 307 624 l 1,1,-1
 307 696 l 2,2,3
 307 741 307 741 288.5 759 c 128,-1,4
 270 777 270 777 233 777 c 128,-1,5
 196 777 196 777 175 765 c 128,-1,6
 154 753 154 753 154 730 c 128,-1,7
 154 707 154 707 179 698 c 1,8,9
 179 676 179 676 161.5 659 c 128,-1,10
 144 642 144 642 121 642 c 128,-1,11
 98 642 98 642 82.5 658.5 c 128,-1,12
 67 675 67 675 67 698 c 0,13,14
 67 748 67 748 114 776.5 c 128,-1,15
 161 805 161 805 229 805 c 0,16,17
 397 805 397 805 397 680 c 2,18,-1
 397 433 l 2,19,20
 397 407 397 407 423 407 c 0,21,22
 433 407 433 407 440 413.5 c 128,-1,23
 447 420 447 420 447 432 c 1,24,-1
 474 432 l 1,25,26
 474 403 474 403 453 387 c 128,-1,27
 432 371 432 371 399.5 371 c 128,-1,28
 367 371 367 371 342.5 387.5 c 128,-1,29
 318 404 318 404 310 436 c 1,30,31
 264 371 264 371 166 371 c 0,32,33
 110 371 110 371 75.5 398 c 128,-1,34
 41 425 41 425 41 471.5 c 128,-1,35
 41 518 41 518 62 547.5 c 128,-1,36
 83 577 83 577 119 593 c 0,37,38
 188.75 624 188.75 624 282 624 c 2,0,-1
307 517 m 1,39,-1
 307 595 l 1,40,-1
 282 595 l 2,41,42
 221 595 221 595 179.5 564 c 128,-1,43
 138 533 138 533 138 478 c 0,44,45
 138 409 138 409 200 409 c 0,46,47
 239 409 239 409 270.5 438.5 c 128,-1,48
 302 468 302 468 307 517 c 1,39,-1
EndSplineSet
EndChar

StartChar: guillemotleft
Encoding: 171 171 91
Width: 365
Flags: HMW
LayerCount: 2
Fore
SplineSet
193 277 m 1,0,-1
 304 395 l 1,1,-1
 313 386 l 1,2,-1
 269 270 l 1,3,-1
 313 153 l 1,4,-1
 304 145 l 1,5,-1
 193 263 l 1,6,-1
 193 277 l 1,0,-1
218 470 m 1,7,-1
 227 460 l 1,8,-1
 133 270 l 1,9,-1
 227 79 l 1,10,-1
 218 70 l 1,11,-1
 45 261 l 1,12,-1
 45 279 l 1,13,-1
 218 470 l 1,7,-1
EndSplineSet
EndChar

StartChar: logicalnot
Encoding: 172 172 92
Width: 560
GlyphClass: 2
Flags: HMW
LayerCount: 2
Fore
SplineSet
72 375 m 1,0,-1
 486 375 l 1,1,-1
 486 123 l 1,2,-1
 450 123 l 1,3,-1
 450 340 l 1,4,-1
 72 340 l 1,5,-1
 72 375 l 1,0,-1
EndSplineSet
EndChar

StartChar: uni00AD
Encoding: 173 173 93
Width: 384
GlyphClass: 2
Flags: HMW
LayerCount: 2
Fore
SplineSet
322 339 m 1,0,-1
 62 339 l 1,1,-1
 62 375 l 1,2,-1
 322 375 l 1,3,-1
 322 339 l 1,0,-1
EndSplineSet
EndChar

StartChar: registered
Encoding: 174 174 94
Width: 918
GlyphClass: 2
Flags: HMW
LayerCount: 2
Fore
SplineSet
81.5 240.5 m 128,-1,1
 49 315 49 315 49 399.5 c 128,-1,2
 49 484 49 484 81.5 558.5 c 128,-1,3
 114 633 114 633 170 689 c 128,-1,4
 226 745 226 745 300.5 777.5 c 128,-1,5
 375 810 375 810 459 810 c 256,6,7
 543 810 543 810 617.5 777 c 128,-1,8
 692 744 692 744 748 688 c 128,-1,9
 804 632 804 632 836.5 557.5 c 128,-1,10
 869 483 869 483 869 399 c 256,11,12
 869 315 869 315 836.5 240.5 c 128,-1,13
 804 166 804 166 748 110.5 c 128,-1,14
 692 55 692 55 617.5 22.5 c 128,-1,15
 543 -10 543 -10 459 -10 c 256,16,17
 375 -10 375 -10 300.5 22.5 c 128,-1,18
 226 55 226 55 170 110.5 c 128,-1,0
 114 166 114 166 81.5 240.5 c 128,-1,1
116 543.5 m 128,-1,20
 87 476 87 476 87 398.5 c 128,-1,21
 87 321 87 321 116 253.5 c 128,-1,22
 145 186 145 186 195.5 135.5 c 128,-1,23
 246 85 246 85 313.5 56 c 128,-1,24
 381 27 381 27 459 27 c 256,25,26
 537 27 537 27 604.5 56.5 c 128,-1,27
 672 86 672 86 722 136.5 c 128,-1,28
 772 187 772 187 801 254.5 c 128,-1,29
 830 322 830 322 830 399 c 256,30,31
 830 476 830 476 801 543.5 c 128,-1,32
 772 611 772 611 722 661.5 c 128,-1,33
 672 712 672 712 604.5 741.5 c 128,-1,34
 537 771 537 771 459.5 771 c 128,-1,35
 382 771 382 771 314 741.5 c 128,-1,36
 246 712 246 712 195.5 661.5 c 128,-1,19
 145 611 145 611 116 543.5 c 128,-1,20
695 194 m 1,37,-1
 712 175 l 1,38,39
 676 136 676 136 624 136 c 0,40,41
 549 136 549 136 538 212 c 2,42,-1
 525 298 l 2,43,44
 519 340 519 340 497.5 362.5 c 128,-1,45
 476 385 476 385 426 385 c 2,46,-1
 386 385 l 1,47,-1
 386 175 l 1,48,-1
 445 166 l 1,49,-1
 445 142 l 1,50,-1
 244 142 l 1,51,-1
 244 166 l 1,52,-1
 304 175 l 1,53,-1
 304 621 l 1,54,-1
 244 630 l 1,55,-1
 244 654 l 1,56,-1
 463 654 l 2,57,58
 569 654 569 654 615.5 621.5 c 128,-1,59
 662 589 662 589 662 522 c 0,60,61
 662 412 662 412 501 395 c 1,62,-1
 501 391 l 1,63,64
 604 377 604 377 620 277 c 2,65,-1
 629 222 l 1,66,67
 632 197 632 197 637 186 c 128,-1,68
 642 175 642 175 658 175 c 128,-1,69
 674 175 674 175 695 194 c 1,37,-1
448 628 m 2,70,-1
 386 628 l 1,71,-1
 386 411 l 1,72,-1
 448 411 l 2,73,74
 571 411 571 411 571 519 c 2,75,-1
 571 532 l 2,76,77
 571 628 571 628 448 628 c 2,70,-1
EndSplineSet
EndChar

StartChar: macron
Encoding: 175 175 95
Width: 459
GlyphClass: 2
Flags: HMW
LayerCount: 2
Fore
SplineSet
459 700 m 1,0,-1
 459 666 l 1,1,-1
 0 666 l 1,2,-1
 0 700 l 1,3,-1
 459 700 l 1,0,-1
EndSplineSet
EndChar

StartChar: acute
Encoding: 180 180 96
Width: 234
GlyphClass: 2
Flags: HMW
LayerCount: 2
Fore
SplineSet
179 755 m 128,-1,1
 193 741 193 741 193 720 c 128,-1,2
 193 699 193 699 176 687 c 1,3,-1
 45 571 l 1,4,-1
 29 583 l 1,5,-1
 103 741 l 1,6,7
 115 769 115 769 146 769 c 0,8,0
 165 769 165 769 179 755 c 128,-1,1
EndSplineSet
EndChar

StartChar: paragraph
Encoding: 182 182 97
Width: 547
GlyphClass: 2
Flags: HMW
LayerCount: 2
Fore
SplineSet
228 -112 m 1,0,-1
 228 426 l 1,1,2
 136 426 136 426 84 479 c 128,-1,3
 32 532 32 532 32 613 c 128,-1,4
 32 694 32 694 84 747 c 128,-1,5
 136 800 136 800 227 800 c 2,6,-1
 504 800 l 1,7,-1
 504 778 l 1,8,-1
 412 764 l 1,9,-1
 412 -112 l 1,10,-1
 370 -112 l 1,11,-1
 370 767 l 1,12,-1
 271 767 l 1,13,-1
 271 -112 l 1,14,-1
 228 -112 l 1,0,-1
EndSplineSet
EndChar

StartChar: periodcentered
Encoding: 183 183 98
Width: 240
GlyphClass: 2
Flags: HMW
LayerCount: 2
Fore
SplineSet
120 234 m 128,-1,1
 93 234 93 234 74 253 c 256,2,3
 55 272 55 272 55 299 c 128,-1,4
 55 326 55 326 75.5 345 c 128,-1,5
 96 364 96 364 120.5 364 c 128,-1,6
 145 364 145 364 165 344 c 128,-1,7
 185 324 185 324 185 299.5 c 128,-1,8
 185 275 185 275 166 254.5 c 128,-1,0
 147 234 147 234 120 234 c 128,-1,1
EndSplineSet
EndChar

StartChar: cedilla
Encoding: 184 184 99
Width: 343
GlyphClass: 2
Flags: HMW
LayerCount: 2
Fore
SplineSet
159 9 m 1,0,-1
 146 -44 l 1,1,2
 268 -49 268 -49 268 -136 c 0,3,4
 268 -184 268 -184 231.5 -208 c 128,-1,5
 195 -232 195 -232 148.5 -232 c 128,-1,6
 102 -232 102 -232 70 -223 c 1,7,-1
 76 -201 l 1,8,9
 88 -204 88 -204 112.5 -204 c 128,-1,10
 137 -204 137 -204 160 -188 c 128,-1,11
 183 -172 183 -172 183 -141 c 0,12,13
 183 -77 183 -77 111 -69 c 1,14,-1
 132 9 l 1,15,-1
 159 9 l 1,0,-1
EndSplineSet
EndChar

StartChar: ordmasculine
Encoding: 186 186 100
Width: 501
GlyphClass: 2
Flags: HMW
LayerCount: 2
Fore
SplineSet
366 547 m 2,0,-1
 366 628 l 2,1,2
 366 697 366 697 338 737 c 128,-1,3
 310 777 310 777 250 777 c 256,4,5
 190 777 190 777 162 737 c 128,-1,6
 134 697 134 697 134 628 c 2,7,-1
 134 547 l 2,8,9
 134 478 134 478 162 438 c 128,-1,10
 190 398 190 398 250 398 c 256,11,12
 310 398 310 398 338 438 c 128,-1,13
 366 478 366 478 366 547 c 2,0,-1
36 587.5 m 0,14,15
 36 636 36 636 52.5 676 c 128,-1,16
 69 716 69 716 97.5 744.5 c 0,17,18
 158 805 158 805 250 805 c 0,19,20
 341.438596491 805 341.438596491 805 403 744.5 c 0,21,22
 465 683.568965517 465 683.568965517 465 587 c 256,23,24
 465 492.431034483 465 492.431034483 403 431.5 c 0,25,26
 341.438596491 371 341.438596491 371 250 371 c 0,27,28
 157 371 157 371 97.5 430.5 c 0,29,30
 36 492 36 492 36 587.5 c 0,14,15
EndSplineSet
EndChar

StartChar: multiply
Encoding: 215 215 104
Width: 489
GlyphClass: 2
Flags: HMW
LayerCount: 2
Fore
SplineSet
58 515 m 1,0,-1
 85 542 l 1,1,-1
 243 383 l 1,2,-1
 403 543 l 1,3,-1
 430 516 l 1,4,-1
 270 356 l 1,5,-1
 430 197 l 1,6,-1
 403 170 l 1,7,-1
 244 330 l 1,8,-1
 85 171 l 1,9,-1
 58 198 l 1,10,-1
 216 356 l 1,11,-1
 58 515 l 1,0,-1
EndSplineSet
EndChar

StartChar: Thorn
Encoding: 222 222 105
Width: 704
GlyphClass: 2
Flags: HMW
LayerCount: 2
Fore
SplineSet
336 21 m 1,0,-1
 336 0 l 1,1,-1
 38 0 l 1,2,-1
 38 21 l 1,3,-1
 130 36 l 1,4,-1
 130 764 l 1,5,-1
 38 778 l 1,6,-1
 38 800 l 1,7,-1
 336 800 l 1,8,-1
 336 778 l 1,9,-1
 244 764 l 1,10,-1
 244 624 l 1,11,-1
 356 624 l 2,12,13
 521 624 521 624 598.5 571.5 c 128,-1,14
 676 519 676 519 676 403.5 c 0,15,16
 676 288 676 288 598.5 235.5 c 128,-1,17
 521 183 521 183 356 183 c 2,18,-1
 244 183 l 1,19,-1
 244 36 l 1,20,-1
 336 21 l 1,0,-1
342 600 m 2,21,-1
 244 600 l 1,22,-1
 244 207 l 1,23,-1
 342 207 l 2,24,25
 548 207 548 207 548 388 c 2,26,-1
 548 418 l 2,27,28
 548 600 548 600 342 600 c 2,21,-1
EndSplineSet
EndChar

StartChar: germandbls
Encoding: 223 223 106
Width: 646
GlyphClass: 2
Flags: HMW
LayerCount: 2
Fore
SplineSet
537 672 m 0,0,1
 537 652 537 652 533.5 635.5 c 128,-1,2
 530 619 530 619 512.5 596.5 c 128,-1,3
 495 574 495 574 474 561.5 c 128,-1,4
 453 549 453 549 444 544.5 c 128,-1,5
 435 540 435 540 405.5 526 c 128,-1,6
 376 512 376 512 352.5 500.5 c 128,-1,7
 329 489 329 489 310.5 470.5 c 128,-1,8
 292 452 292 452 292 427 c 128,-1,9
 292 402 292 402 310 384 c 128,-1,10
 328 366 328 366 347.5 358.5 c 128,-1,11
 367 351 367 351 398 343 c 2,12,-1
 500 317 l 2,13,14
 621 286 621 286 621 159 c 0,15,16
 621 84 621 84 577.5 37 c 128,-1,17
 534 -10 534 -10 437 -10 c 0,18,19
 250 -10 250 -10 250 84 c 0,20,21
 250 112 250 112 267.5 129.5 c 128,-1,22
 285 147 285 147 308.5 147 c 128,-1,23
 332 147 332 147 347.5 135.5 c 128,-1,24
 363 124 363 124 369 106 c 1,25,26
 352 86 352 86 352 61.5 c 128,-1,27
 352 37 352 37 375 23 c 128,-1,28
 398 9 398 9 437 9 c 0,29,30
 500 9 500 9 543 40.5 c 128,-1,31
 586 72 586 72 586 117 c 0,32,33
 586 162.25 586 162.25 553 181.5 c 0,34,35
 525.242990654 197.691588785 525.242990654 197.691588785 477 211 c 2,36,-1
 387 236 l 2,37,38
 321 255 321 255 288 292 c 128,-1,39
 255 329 255 329 255 394 c 0,40,41
 255 449.03030303 255 449.03030303 288.5 480.5 c 0,42,43
 312.965517241 503.482758621 312.965517241 503.482758621 358.982758621 525.74137931 c 128,-1,44
 405 548 405 548 421 578.5 c 128,-1,45
 437 609 437 609 437 672 c 0,46,47
 437 802 437 802 326 802 c 0,48,49
 190 802 190 802 190 605 c 2,50,-1
 190 0 l 1,51,-1
 20 0 l 1,52,-1
 20 20 l 1,53,-1
 90 30 l 1,54,-1
 90 562 l 2,55,56
 90 820 90 820 326 820 c 0,57,58
 430 820 430 820 483.5 780 c 128,-1,59
 537 740 537 740 537 672 c 0,0,1
EndSplineSet
EndChar

StartChar: eth
Encoding: 240 240 107
Width: 622
GlyphClass: 2
Flags: HMW
LayerCount: 2
Fore
SplineSet
352 718 m 1,0,1
 294 762 294 762 192 788 c 1,2,-1
 197 810 l 1,3,4
 306 784 306 784 383 735 c 1,5,-1
 498 798 l 1,6,-1
 511 776 l 1,7,-1
 406 718 l 1,8,9
 560 603 560 603 560 372 c 2,10,-1
 560 259 l 2,11,12
 560 140.571428571 560 140.571428571 485 64.5 c 0,13,14
 411.549295775 -10 411.549295775 -10 300 -10 c 256,15,16
 189.450704225 -10 189.450704225 -10 116 64.5 c 0,17,18
 41 140.571428571 41 140.571428571 41 259 c 256,19,20
 41 377.428571429 41 377.428571429 116 453.5 c 0,21,22
 188.464788732 527 188.464788732 527 300 527 c 0,23,24
 382 527 382 527 447 493 c 1,25,26
 440 633 440 633 373 700 c 1,27,-1
 245 629 l 1,28,-1
 233 653 l 1,29,-1
 352 718 l 1,0,1
450 393 m 2,30,31
 450 421 450 421 448 467 c 1,32,33
 379 505 379 505 302.5 505 c 128,-1,34
 226 505 226 505 188.5 451.5 c 128,-1,35
 151 398 151 398 151 309 c 2,36,-1
 151 209 l 2,37,38
 151 120 151 120 188.5 66 c 128,-1,39
 226 12 226 12 300 12 c 128,-1,40
 374 12 374 12 412 66 c 128,-1,41
 450 120 450 120 450 209 c 2,42,-1
 450 393 l 2,30,31
EndSplineSet
EndChar

StartChar: dotlessi
Encoding: 305 305 108
Width: 287
GlyphClass: 2
Flags: HMW
LayerCount: 2
Fore
SplineSet
27 497 m 1,0,-1
 27 517 l 1,1,-1
 197 517 l 1,2,-1
 197 30 l 1,3,-1
 267 20 l 1,4,-1
 267 0 l 1,5,-1
 27 0 l 1,6,-1
 27 20 l 1,7,-1
 97 30 l 1,8,-1
 97 487 l 1,9,-1
 27 497 l 1,0,-1
EndSplineSet
EndChar

StartChar: circumflex
Encoding: 710 710 109
Width: 357
GlyphClass: 2
Flags: HMW
LayerCount: 2
Fore
SplineSet
159 759 m 1,0,-1
 198 759 l 1,1,-1
 318 604 l 1,2,-1
 297 589 l 1,3,-1
 178 683 l 1,4,-1
 60 589 l 1,5,-1
 39 604 l 1,6,-1
 159 759 l 1,0,-1
EndSplineSet
EndChar

StartChar: ring
Encoding: 730 730 110
Width: 263
GlyphClass: 2
Flags: HMW
LayerCount: 2
Fore
SplineSet
64.5 737 m 128,-1,1
 92 765 92 765 131.5 765 c 128,-1,2
 171 765 171 765 198.5 737 c 128,-1,3
 226 709 226 709 226 670 c 128,-1,4
 226 631 226 631 198.5 603 c 128,-1,5
 171 575 171 575 131.5 575 c 128,-1,6
 92 575 92 575 64.5 603 c 128,-1,7
 37 631 37 631 37 670 c 128,-1,0
 37 709 37 709 64.5 737 c 128,-1,1
131 732 m 128,-1,9
 106 732 106 732 87.5 713.5 c 128,-1,10
 69 695 69 695 69 670 c 128,-1,11
 69 645 69 645 87.5 626.5 c 128,-1,12
 106 608 106 608 131 608 c 128,-1,13
 156 608 156 608 175 626.5 c 128,-1,14
 194 645 194 645 194 670 c 128,-1,15
 194 695 194 695 175 713.5 c 128,-1,8
 156 732 156 732 131 732 c 128,-1,9
EndSplineSet
EndChar

StartChar: tilde
Encoding: 732 732 111
Width: 452
GlyphClass: 2
Flags: HMW
LayerCount: 2
Fore
SplineSet
342.5 614 m 128,-1,1
 319 602 319 602 285.5 602 c 128,-1,2
 252 602 252 602 194.5 637.5 c 128,-1,3
 137 673 137 673 112 673 c 0,4,5
 73 673 73 673 55 624 c 1,6,-1
 28 628 l 1,7,8
 38.4583333333 669.833333333 38.4583333333 669.833333333 57.7291666667 691.416666667 c 0,9,10
 98.4285714286 737 98.4285714286 737 153 737 c 0,11,12
 191 737 191 737 248.5 701.5 c 128,-1,13
 306 666 306 666 331 666 c 0,14,15
 370 666 370 666 388 715 c 1,16,-1
 415 711 l 1,17,18
 404.541666667 669.166666667 404.541666667 669.166666667 385.270833333 647.583333333 c 128,-1,0
 366 626 366 626 342.5 614 c 128,-1,1
EndSplineSet
EndChar

StartChar: endash
Encoding: 8211 8211 112
Width: 634
GlyphClass: 2
Flags: HMW
LayerCount: 2
Fore
SplineSet
572 375 m 1,0,-1
 572 339 l 1,1,-1
 62 339 l 1,2,-1
 62 375 l 1,3,-1
 572 375 l 1,0,-1
EndSplineSet
EndChar

StartChar: emdash
Encoding: 8212 8212 113
Width: 1134
GlyphClass: 2
Flags: HMW
LayerCount: 2
Fore
SplineSet
1072 374 m 1,0,-1
 1072 340 l 1,1,-1
 62 340 l 1,2,-1
 62 374 l 1,3,-1
 1072 374 l 1,0,-1
EndSplineSet
EndChar

StartChar: quoteleft
Encoding: 8216 8216 114
Width: 220
GlyphClass: 2
Flags: HMW
LayerCount: 2
Fore
SplineSet
164 809 m 1,0,-1
 175 793 l 1,1,2
 144.302325581 774.581395349 144.302325581 774.581395349 126.651162791 750.790697674 c 0,3,4
 96 709.47826087 96 709.47826087 96 677 c 0,5,6
 96 657 96 657 118.5 657 c 128,-1,7
 141 657 141 657 158.5 639.5 c 128,-1,8
 176 622 176 622 176 597 c 256,9,10
 176 572 176 572 158.5 555.5 c 128,-1,11
 141 539 141 539 111 539 c 128,-1,12
 81 539 81 539 60.5 564 c 128,-1,13
 40 589 40 589 40 631 c 0,14,15
 40 748 40 748 164 809 c 1,0,-1
EndSplineSet
EndChar

StartChar: quoteright
Encoding: 8217 8217 115
Width: 219
GlyphClass: 2
Flags: HMW
LayerCount: 2
Fore
SplineSet
61 539 m 1,0,-1
 50 555 l 1,1,2
 80.6976744186 573.418604651 80.6976744186 573.418604651 98.3488372093 597.209302326 c 0,3,4
 129 638.52173913 129 638.52173913 129 671 c 0,5,6
 129 691 129 691 106.5 691 c 128,-1,7
 84 691 84 691 66.5 708.5 c 128,-1,8
 49 726 49 726 49 751 c 256,9,10
 49 776 49 776 66.5 792.5 c 128,-1,11
 84 809 84 809 114 809 c 128,-1,12
 144 809 144 809 164.5 784 c 128,-1,13
 185 759 185 759 185 717 c 0,14,15
 185 600 185 600 61 539 c 1,0,-1
EndSplineSet
EndChar

StartChar: quotesinglbase
Encoding: 8218 8218 116
Width: 228
GlyphClass: 2
Flags: HMW
LayerCount: 2
Fore
SplineSet
60 -162 m 1,0,-1
 49 -146 l 1,1,2
 79.6976744186 -127.581395349 79.6976744186 -127.581395349 97.3488372093 -103.790697674 c 0,3,4
 128 -62.4782608696 128 -62.4782608696 128 -30 c 0,5,6
 128 -10 128 -10 105.5 -10 c 128,-1,7
 83 -10 83 -10 65.5 7.5 c 128,-1,8
 48 25 48 25 48 50 c 256,9,10
 48 75 48 75 65.5 91.5 c 128,-1,11
 83 108 83 108 113 108 c 128,-1,12
 143 108 143 108 163.5 83 c 128,-1,13
 184 58 184 58 184 16 c 0,14,15
 184 -101 184 -101 60 -162 c 1,0,-1
EndSplineSet
EndChar

StartChar: bullet
Encoding: 8226 8226 120
Width: 468
GlyphClass: 2
Flags: HMW
LayerCount: 2
Fore
SplineSet
170.5 420.5 m 128,-1,1
 198 448 198 448 234 448 c 256,2,3
 270 448 270 448 297.5 420.5 c 128,-1,4
 325 393 325 393 325 357 c 256,5,6
 325 321 325 321 297.5 293.5 c 128,-1,7
 270 266 270 266 233 266 c 128,-1,8
 196 266 196 266 169.5 292.5 c 128,-1,9
 143 319 143 319 143 356 c 128,-1,0
 143 393 143 393 170.5 420.5 c 128,-1,1
EndSplineSet
EndChar

StartChar: guilsinglleft
Encoding: 8249 8249 121
Width: 278
GlyphClass: 2
Flags: HMW
LayerCount: 2
Fore
SplineSet
45 279 m 1,0,-1
 218 470 l 1,1,-1
 227 460 l 1,2,-1
 133 270 l 1,3,-1
 227 79 l 1,4,-1
 218 70 l 1,5,-1
 45 261 l 1,6,-1
 45 279 l 1,0,-1
EndSplineSet
EndChar

StartChar: fraction
Encoding: 8260 8260 123
Width: 407
GlyphClass: 2
Flags: HMW
LayerCount: 2
Fore
SplineSet
429 800 m 1,0,-1
 30 0 l 1,1,-1
 -22 0 l 1,2,-1
 378 800 l 1,3,-1
 429 800 l 1,0,-1
EndSplineSet
EndChar

StartChar: thorn
Encoding: 254 254 124
Width: 624
GlyphClass: 2
Flags: HMW
LayerCount: 2
Fore
SplineSet
177 800 m 1,0,-1
 177 418 l 1,1,2
 231 527 231 527 343 527 c 0,3,4
 450.394366197 527 450.394366197 527 516.5 452.5 c 0,5,6
 582 378.682539683 582 378.682539683 582 258 c 256,7,8
 582 137.387096774 582 137.387096774 517 64 c 0,9,10
 451.457142857 -10 451.457142857 -10 340.728571429 -10 c 128,-1,11
 230 -10 230 -10 177 97 c 1,12,-1
 177 -253 l 1,13,-1
 271 -263 l 1,14,-1
 271 -283 l 1,15,-1
 7 -283 l 1,16,-1
 7 -263 l 1,17,-1
 77 -253 l 1,18,-1
 77 770 l 1,19,-1
 7 780 l 1,20,-1
 7 800 l 1,21,-1
 177 800 l 1,0,-1
472 208 m 2,22,-1
 472 308 l 2,23,24
 472 502 472 502 333 502 c 0,25,26
 273 502 273 502 230.5 457.5 c 128,-1,27
 188 413 188 413 177 346 c 1,28,-1
 177 170 l 1,29,30
 188 103 188 103 230.5 59 c 128,-1,31
 273 15 273 15 333 15 c 0,32,33
 472 15 472 15 472 208 c 2,22,-1
EndSplineSet
EndChar

StartChar: divide
Encoding: 247 247 125
Width: 591
GlyphClass: 2
Flags: HMW
LayerCount: 2
Fore
SplineSet
258 234.5 m 128,-1,1
 274 250 274 250 296.5 250 c 128,-1,2
 319 250 319 250 334.5 234.5 c 128,-1,3
 350 219 350 219 350 197 c 128,-1,4
 350 175 350 175 334 159 c 128,-1,5
 318 143 318 143 296 143 c 128,-1,6
 274 143 274 143 258 159 c 128,-1,7
 242 175 242 175 242 197 c 128,-1,0
 242 219 242 219 258 234.5 c 128,-1,1
296 463 m 128,-1,9
 274 463 274 463 258 479.5 c 128,-1,10
 242 496 242 496 242 518 c 128,-1,11
 242 540 242 540 258 555.5 c 128,-1,12
 274 571 274 571 296 571 c 128,-1,13
 318 571 318 571 334 555.5 c 128,-1,14
 350 540 350 540 350 518 c 128,-1,15
 350 496 350 496 334 479.5 c 128,-1,8
 318 463 318 463 296 463 c 128,-1,9
71 338 m 1,16,-1
 71 376 l 1,17,-1
 520 376 l 1,18,-1
 520 338 l 1,19,-1
 71 338 l 1,16,-1
EndSplineSet
EndChar

StartChar: plusminus
Encoding: 177 177 127
Width: 607
GlyphClass: 2
Flags: HMW
LayerCount: 2
Fore
SplineSet
74 112 m 1,0,-1
 74 150 l 1,1,-1
 533 150 l 1,2,-1
 533 112 l 1,3,-1
 74 112 l 1,0,-1
284 537 m 1,4,-1
 322 537 l 1,5,-1
 322 376 l 1,6,-1
 533 376 l 1,7,-1
 533 338 l 1,8,-1
 322 338 l 1,9,-1
 322 177 l 1,10,-1
 284 177 l 1,11,-1
 284 338 l 1,12,-1
 74 338 l 1,13,-1
 74 376 l 1,14,-1
 284 376 l 1,15,-1
 284 537 l 1,4,-1
EndSplineSet
EndChar

StartChar: percent
Encoding: 37 37 128
Width: 825
GlyphClass: 2
Flags: HMW
LayerCount: 2
Fore
SplineSet
631 -5 m 256,0,1
 559 -5 559 -5 515.5 51 c 128,-1,2
 472 107 472 107 472 213 c 256,3,4
 472 319 472 319 515.5 374.5 c 128,-1,5
 559 430 559 430 631 430 c 256,6,7
 703 430 703 430 746 374.5 c 128,-1,8
 789 319 789 319 789 213 c 256,9,10
 789 107 789 107 746 51 c 128,-1,11
 703 -5 703 -5 631 -5 c 256,0,1
712 162 m 2,12,-1
 712 264 l 2,13,14
 712 409 712 409 631 409 c 256,15,16
 550 409 550 409 550 264 c 2,17,-1
 550 162 l 2,18,19
 550 17 550 17 631 17 c 256,20,21
 712 17 712 17 712 162 c 2,12,-1
194 370 m 256,22,23
 122 370 122 370 79 426 c 128,-1,24
 36 482 36 482 36 588 c 256,25,26
 36 694 36 694 79 749.5 c 128,-1,27
 122 805 122 805 194 805 c 256,28,29
 266 805 266 805 309.5 749.5 c 128,-1,30
 353 694 353 694 353 588 c 256,31,32
 353 482 353 482 309.5 426 c 128,-1,33
 266 370 266 370 194 370 c 256,22,23
275 537 m 2,34,-1
 275 639 l 2,35,36
 275 784 275 784 194 784 c 256,37,38
 113 784 113 784 113 639 c 2,39,-1
 113 537 l 2,40,41
 113 392 113 392 194 392 c 256,42,43
 275 392 275 392 275 537 c 2,34,-1
638 800 m 1,44,-1
 239 0 l 1,45,-1
 187 0 l 1,46,-1
 587 800 l 1,47,-1
 638 800 l 1,44,-1
EndSplineSet
EndChar

StartChar: twosuperior
Encoding: 178 178 129
Width: 387
GlyphClass: 2
Flags: HMW
LayerCount: 2
Fore
SplineSet
325 523 m 1,0,-1
 325 380 l 1,1,-1
 51 380 l 1,2,-1
 51 420 l 1,3,-1
 167 533 l 2,4,5
 249 613 249 613 249 699 c 0,6,7
 249 738 249 738 230 760.5 c 128,-1,8
 211 783 211 783 182.5 783 c 0,9,10
 154 783 154 783 136 771 c 128,-1,11
 118 759 118 759 118 735.5 c 0,12,13
 118 712 118 712 149 695 c 1,14,15
 149 674 149 674 136.5 662.5 c 128,-1,16
 124 651 124 651 105.5 651 c 0,17,18
 87 651 87 651 73 665 c 128,-1,19
 59 679 59 679 59 703 c 0,20,21
 59 752 59 752 94 778.5 c 128,-1,22
 129 805 129 805 191.5 805 c 0,23,24
 254 805 254 805 290 774.5 c 128,-1,25
 326 744 326 744 326 697 c 0,26,27
 326 650 326 650 300.5 614 c 128,-1,28
 275 578 275 578 228 541 c 2,29,-1
 108 444 l 1,30,-1
 274 444 l 1,31,-1
 302 523 l 1,32,-1
 325 523 l 1,0,-1
EndSplineSet
EndChar

StartChar: threesuperior
Encoding: 179 179 130
Width: 369
GlyphClass: 2
Flags: HMW
LayerCount: 2
Fore
SplineSet
131 602 m 1,0,-1
 131 623 l 1,1,2
 185 626 185 626 206.5 648 c 128,-1,3
 228 670 228 670 228 715 c 0,4,5
 228 783 228 783 165 783 c 0,6,7
 115 783 115 783 115 746 c 0,8,9
 115 722 115 722 144 711 c 1,10,11
 144 691 144 691 132 680 c 128,-1,12
 120 669 120 669 102.5 669 c 0,13,14
 85 669 85 669 72.5 682.5 c 128,-1,15
 60 696 60 696 60 719 c 0,16,17
 60 762 60 762 93 783.5 c 128,-1,18
 126 805 126 805 180.5 805 c 0,19,20
 235 805 235 805 269 781.5 c 128,-1,21
 303 758 303 758 303 712 c 0,22,23
 303 628 303 628 183 613 c 1,24,-1
 183 611 l 1,25,26
 330 602 330 602 330 492 c 0,27,28
 330 442 330 442 285.5 406.5 c 128,-1,29
 241 371 241 371 164 371 c 0,30,31
 113 371 113 371 77 398.5 c 128,-1,32
 41 426 41 426 41 469 c 0,33,34
 41 492 41 492 54 505.5 c 128,-1,35
 67 519 67 519 84.5 519 c 0,36,37
 102 519 102 519 114.5 508 c 128,-1,38
 127 497 127 497 127 477 c 1,39,40
 97 461 97 461 97 437 c 0,41,42
 97 393 97 393 164 393 c 0,43,44
 198 393 198 393 221.5 418 c 128,-1,45
 245 443 245 443 245 494.5 c 0,46,47
 245 546 245 546 219 572 c 128,-1,48
 193 598 193 598 131 602 c 1,0,-1
EndSplineSet
EndChar

StartChar: onesuperior
Encoding: 185 185 131
Width: 249
GlyphClass: 2
Flags: HMW
LayerCount: 2
Fore
SplineSet
50 779 m 1,0,-1
 50 800 l 1,1,-1
 164 800 l 1,2,-1
 164 401 l 1,3,-1
 206 396 l 1,4,-1
 206 375 l 1,5,-1
 50 375 l 1,6,-1
 50 396 l 1,7,-1
 92 401 l 1,8,-1
 92 774 l 1,9,-1
 50 779 l 1,0,-1
EndSplineSet
EndChar

StartChar: degree
Encoding: 176 176 133
Width: 367
GlyphClass: 2
Flags: HMW
LayerCount: 2
Fore
SplineSet
80 505 m 256,0,1
 37 548 37 548 37 609 c 0,2,3
 37 671.12195122 37 671.12195122 80.5 712.5 c 0,4,5
 125.179487179 755 125.179487179 755 184 755 c 256,6,7
 244 755 244 755 287 712 c 128,-1,8
 330 669 330 669 330 609 c 256,9,10
 330 550.179487179 330 550.179487179 287.5 505.5 c 0,11,12
 246.12195122 462 246.12195122 462 184.56097561 462 c 128,-1,13
 123 462 123 462 80 505 c 256,0,1
292 608.5 m 0,14,15
 292 630 292 630 283 649.5 c 128,-1,16
 274 669 274 669 259 684 c 0,17,18
 226 717 226 717 184 717 c 0,19,20
 140 717 140 717 108 685 c 128,-1,21
 76 653 76 653 76 609 c 256,22,23
 76 565 76 565 108 533 c 128,-1,24
 140 501 140 501 184 501 c 256,25,26
 228 501 228 501 260 533 c 128,-1,27
 292 565 292 565 292 608.5 c 0,14,15
EndSplineSet
EndChar

StartChar: minus
Encoding: 8722 8722 135
Width: 594
GlyphClass: 2
Flags: HMW
LayerCount: 2
Fore
SplineSet
72 338 m 1,0,-1
 72 376 l 1,1,-1
 522 376 l 1,2,-1
 522 338 l 1,3,-1
 72 338 l 1,0,-1
EndSplineSet
EndChar

StartChar: currency
Encoding: 164 164 136
Width: 541
GlyphClass: 2
Flags: HMW
LayerCount: 2
Fore
SplineSet
57 172 m 1,0,-1
 132 248 l 1,1,2
 93 295 93 295 93 357.5 c 128,-1,3
 93 420 93 420 133 470 c 1,4,-1
 58 544 l 1,5,-1
 85 572 l 1,6,-1
 160 497 l 1,7,8
 208 535 208 535 269.5 535 c 128,-1,9
 331 535 331 535 380 496 c 1,10,-1
 457 573 l 1,11,-1
 484 545 l 1,12,-1
 408 469 l 1,13,14
 448 421 448 421 448 359.5 c 128,-1,15
 448 298 448 298 408 248 c 1,16,-1
 484 173 l 1,17,-1
 457 146 l 1,18,-1
 381 221 l 1,19,20
 333 182 333 182 270.5 182 c 128,-1,21
 208 182 208 182 159 220 c 1,22,-1
 84 145 l 1,23,-1
 57 172 l 1,0,-1
369 260.5 m 128,-1,25
 410 301 410 301 410 358.5 c 128,-1,26
 410 416 410 416 369 456.5 c 128,-1,27
 328 497 328 497 270.5 497 c 128,-1,28
 213 497 213 497 172.5 456.5 c 128,-1,29
 132 416 132 416 132 358.5 c 128,-1,30
 132 301 132 301 172.5 260.5 c 128,-1,31
 213 220 213 220 270.5 220 c 128,-1,24
 328 220 328 220 369 260.5 c 128,-1,25
EndSplineSet
EndChar

StartChar: caron
Encoding: 711 711 137
Width: 357
GlyphClass: 2
Flags: HMW
LayerCount: 2
Fore
SplineSet
198 589 m 1,0,-1
 159 589 l 1,1,-1
 39 745 l 1,2,-1
 60 759 l 1,3,-1
 178 665 l 1,4,-1
 297 759 l 1,5,-1
 318 745 l 1,6,-1
 198 589 l 1,0,-1
EndSplineSet
EndChar

StartChar: mu
Encoding: 181 181 138
AltUni2: 0003bc.ffffffff.0 0003bc.ffffffff.0 0003bc.ffffffff.0
Width: 646
GlyphClass: 2
Flags: HMW
LayerCount: 2
Fore
SplineSet
96 133 m 1,0,-1
 96 518 l 1,1,-1
 196 518 l 1,2,-1
 196 135 l 2,3,4
 196 26 196 26 281 26 c 0,5,6
 366 26 366 26 446 143 c 1,7,-1
 446 518 l 1,8,-1
 546 518 l 1,9,-1
 546 30 l 1,10,-1
 616 20 l 1,11,-1
 616 0 l 1,12,-1
 446 0 l 1,13,-1
 446 107 l 1,14,15
 365 -10 365 -10 251 -10 c 0,16,17
 170 -10 170 -10 131 32 c 1,18,19
 139 -84 139 -84 168 -149.5 c 128,-1,20
 197 -215 197 -215 250 -242 c 1,21,22
 239 -264 239 -264 216.5 -278 c 128,-1,23
 194 -292 194 -292 165 -292 c 0,24,25
 90 -292 90 -292 90 -211 c 1,26,-1
 96 133 l 1,0,-1
EndSplineSet
EndChar

StartChar: foursuperior
Encoding: 8308 8308 139
Width: 359
GlyphClass: 2
Flags: HMW
LayerCount: 2
Fore
SplineSet
13 478 m 1,0,-1
 13 489 l 1,1,-1
 237 800 l 1,2,-1
 262 800 l 1,3,-1
 262 512 l 1,4,-1
 310 512 l 1,5,-1
 310 478 l 1,6,-1
 262 478 l 1,7,-1
 262 404 l 1,8,-1
 310 396 l 1,9,-1
 310 375 l 1,10,-1
 142 375 l 1,11,-1
 142 396 l 1,12,-1
 191 404 l 1,13,-1
 191 478 l 1,14,-1
 13 478 l 1,0,-1
60 512 m 1,15,-1
 191 512 l 1,16,-1
 191 693 l 1,17,-1
 60 512 l 1,15,-1
EndSplineSet
EndChar

StartChar: foundryicon
Encoding: 65540 -1 143
Width: 1056
GlyphClass: 2
Flags: HMW
LayerCount: 2
Fore
SplineSet
1007 282 m 1,0,-1
 1007 251 l 1,1,-1
 991 251 l 1,2,3
 992 249 992 249 992 240 c 128,-1,4
 992 231 992 231 980.5 221 c 128,-1,5
 969 211 969 211 953.5 211 c 128,-1,6
 938 211 938 211 935 212 c 1,7,-1
 935 197 l 1,8,-1
 953 197 l 2,9,10
 992 197 992 197 992 161 c 0,11,12
 992 153 992 153 986 138 c 1,13,-1
 959 138 l 1,14,-1
 959 167 l 1,15,-1
 913 167 l 1,16,17
 903 174 903 174 903 190.5 c 128,-1,18
 903 207 903 207 917 219 c 1,19,20
 903 227 903 227 903 245 c 128,-1,21
 903 263 903 263 914.5 273.5 c 128,-1,22
 926 284 926 284 945 284 c 128,-1,23
 964 284 964 284 977 274 c 1,24,25
 985 284 985 284 992 284 c 128,-1,26
 999 284 999 284 1007 282 c 1,0,-1
268 251 m 1,27,-1
 245 175 l 1,28,29
 235 138 235 138 202 138 c 0,30,31
 183 138 183 138 176 145 c 1,32,-1
 176 171 l 1,33,-1
 193 171 l 2,34,35
 209 171 209 171 214 182 c 1,36,-1
 200 182 l 1,37,-1
 176 251 l 1,38,-1
 166 251 l 1,39,-1
 166 282 l 1,40,-1
 204 282 l 1,41,-1
 218 233 l 1,42,-1
 223 209 l 1,43,-1
 234 251 l 1,44,-1
 225 251 l 1,45,-1
 225 282 l 1,46,-1
 268 282 l 1,47,-1
 268 251 l 1,27,-1
158 212 m 1,48,-1
 158 187 l 1,49,50
 140 179 140 179 113 179 c 128,-1,51
 86 179 86 179 68.5 196.5 c 128,-1,52
 51 214 51 214 51 246 c 128,-1,53
 51 278 51 278 68.5 297 c 128,-1,54
 86 316 86 316 110.5 316 c 128,-1,55
 135 316 135 316 158 309 c 1,56,-1
 158 269 l 1,57,-1
 127 269 l 1,58,-1
 127 284 l 1,59,60
 124 285 124 285 118 285 c 0,61,62
 89 285 89 285 89 248.5 c 128,-1,63
 89 212 89 212 126 212 c 2,64,-1
 158 212 l 1,48,-1
748 179 m 0,65,66
 699 179 699 179 699 231 c 0,67,68
 699 256 699 256 712.5 270 c 128,-1,69
 726 284 726 284 749 284 c 128,-1,70
 772 284 772 284 785.5 270.5 c 128,-1,71
 799 257 799 257 799 232 c 128,-1,72
 799 207 799 207 785.5 193 c 128,-1,73
 772 179 772 179 748 179 c 0,65,66
484 277 m 1,74,75
 505 284 505 284 520 284 c 0,76,77
 566 284 566 284 566 246 c 2,78,-1
 566 212 l 1,79,-1
 577 212 l 1,80,-1
 577 185 l 1,81,82
 570 180 570 180 555.5 180 c 128,-1,83
 541 180 541 180 535 187 c 1,84,85
 526 179 526 179 510.5 179 c 128,-1,86
 495 179 495 179 485.5 187 c 128,-1,87
 476 195 476 195 476 210 c 0,88,89
 476 240 476 240 515 240 c 2,90,-1
 531 240 l 1,91,-1
 531 241 l 2,92,93
 531 251 531 251 509 251 c 2,94,-1
 484 251 l 1,95,-1
 484 277 l 1,74,75
432 212 m 2,96,-1
 461 212 l 1,97,-1
 461 186 l 1,98,99
 446 179 446 179 424 179 c 0,100,101
 371 179 371 179 371 230 c 0,102,103
 371 284 371 284 420 284 c 0,104,105
 440 284 440 284 452 272 c 128,-1,106
 464 260 464 260 464 249 c 128,-1,107
 464 238 464 238 462 224 c 1,108,-1
 407 224 l 1,109,110
 411 212 411 212 432 212 c 2,96,-1
855 266 m 1,111,112
 864 284 864 284 880 284 c 0,113,114
 886 284 886 284 892 282 c 1,115,-1
 892 251 l 1,116,-1
 858 251 l 1,117,-1
 858 212 l 1,118,-1
 875 212 l 1,119,-1
 875 182 l 1,120,-1
 813 182 l 1,121,-1
 813 212 l 1,122,-1
 822 212 l 1,123,-1
 822 251 l 1,124,-1
 811 251 l 1,125,-1
 811 282 l 1,126,-1
 845 282 l 1,127,-1
 855 266 l 1,111,112
326 266 m 1,128,129
 335 284 335 284 351 284 c 0,130,131
 357 284 357 284 363 282 c 1,132,-1
 363 251 l 1,133,-1
 329 251 l 1,134,-1
 329 212 l 1,135,-1
 346 212 l 1,136,-1
 346 182 l 1,137,-1
 284 182 l 1,138,-1
 284 212 l 1,139,-1
 294 212 l 1,140,-1
 294 251 l 1,141,-1
 282 251 l 1,142,-1
 282 282 l 1,143,-1
 316 282 l 1,144,-1
 326 266 l 1,128,129
589 208 m 2,145,-1
 589 285 l 1,146,-1
 577 285 l 1,147,-1
 577 316 l 1,148,-1
 624 316 l 1,149,-1
 624 212 l 1,150,-1
 638 212 l 1,151,-1
 638 184 l 1,152,153
 629 180 629 180 616 180 c 0,154,155
 589 180 589 180 589 208 c 2,145,-1
651 199.5 m 128,-1,157
 651 219 651 219 672 219 c 128,-1,158
 693 219 693 219 693 199.5 c 128,-1,159
 693 180 693 180 672 180 c 128,-1,156
 651 180 651 180 651 199.5 c 128,-1,157
749 206 m 128,-1,161
 763 206 763 206 763 231 c 128,-1,162
 763 256 763 256 749 256 c 128,-1,163
 735 256 735 256 735 231 c 128,-1,160
 735 206 735 206 749 206 c 128,-1,161
948 232 m 0,164,165
 958 232 958 232 958 247 c 128,-1,166
 958 262 958 262 948 262 c 0,167,168
 936 262 936 262 936 247 c 128,-1,169
 936 232 936 232 948 232 c 0,164,165
520 204 m 0,170,171
 527 204 527 204 531 207 c 1,172,-1
 531 222 l 1,173,-1
 523 222 l 2,174,175
 510 222 510 222 510 213 c 128,-1,176
 510 204 510 204 520 204 c 0,170,171
419 258 m 0,177,178
 409 258 409 258 406 242 c 1,179,-1
 431 242 l 1,180,181
 431 258 431 258 419 258 c 0,177,178
EndSplineSet
EndChar

StartChar: Q
Encoding: 81 81 164
Width: 856
GlyphClass: 2
Flags: HMW
LayerCount: 2
Fore
SplineSet
613 -208 m 1,0,-1
 613 -231 l 1,1,-1
 580 -231 l 2,2,3
 368 -231 368 -231 368 -58 c 2,4,-1
 368 -15 l 1,5,6
 224.797655232 5.16934433348 224.797655232 5.16934433348 138.5 118.5 c 0,7,8
 51 233.409638554 51 233.409638554 51 400 c 0,9,10
 51 586.455445545 51 586.455445545 157.5 703.5 c 0,11,12
 263.504504505 820 263.504504505 820 428 820 c 256,13,14
 510 820 510 820 579.5 789 c 128,-1,15
 649 758 649 758 699 702.5 c 0,16,17
 805 584.84 805 584.84 805 400 c 0,18,19
 805 235.096385542 805 235.096385542 718.5 121.5 c 0,20,21
 631.354324847 7.05567961888 631.354324847 7.05567961888 491 -15 c 1,22,-1
 491 -82 l 2,23,24
 491 -208 491 -208 613 -208 c 1,0,-1
247 88.5 m 128,-1,26
 317 3 317 3 427.5 3 c 128,-1,27
 538 3 538 3 608.5 88.5 c 128,-1,28
 679 174 679 174 679 323 c 2,29,-1
 679 477 l 2,30,31
 679 626 679 626 608.5 711.5 c 128,-1,32
 538 797 538 797 427.5 797 c 128,-1,33
 317 797 317 797 247 711.5 c 128,-1,34
 177 626 177 626 177 477 c 2,35,-1
 177 323 l 2,36,25
 177 174 177 174 247 88.5 c 128,-1,26
EndSplineSet
EndChar

StartChar: grave.case
Encoding: 65541 -1 165
Width: 260
GlyphClass: 2
Flags: HMW
LayerCount: 2
Fore
SplineSet
59 861 m 2,0,1
 44 866 44 866 34 878.5 c 128,-1,2
 24 891 24 891 24 907.5 c 0,3,4
 24 924 24 924 38 938.5 c 128,-1,5
 52 953 52 953 71 953 c 128,-1,6
 90 953 90 953 104 941 c 2,7,-1
 235 827 l 1,8,-1
 226 810 l 1,9,-1
 59 861 l 2,0,1
EndSplineSet
EndChar

StartChar: acute.case
Encoding: 65542 -1 166
Width: 260
GlyphClass: 2
Flags: HMW
LayerCount: 2
Fore
SplineSet
201 861 m 2,0,-1
 34 810 l 1,1,-1
 24 827 l 1,2,-1
 156 941 l 2,3,4
 170 953 170 953 189 953 c 0,5,6
 208 953 208 953 221.5 939 c 128,-1,7
 235 925 235 925 235 908 c 0,8,9
 235 891 235 891 225.5 878.5 c 128,-1,10
 216 866 216 866 201 861 c 2,0,-1
EndSplineSet
EndChar

StartChar: circumflex.case
Encoding: 65543 -1 167
Width: 382
GlyphClass: 2
Flags: HMW
LayerCount: 2
Fore
SplineSet
339 827 m 1,0,-1
 191 896 l 1,1,-1
 43 827 l 1,2,-1
 34 842 l 1,3,-1
 162 964 l 1,4,-1
 221 964 l 1,5,-1
 348 842 l 1,6,-1
 339 827 l 1,0,-1
EndSplineSet
EndChar

StartChar: dieresis.case
Encoding: 65544 -1 168
Width: 353
GlyphClass: 2
Flags: HMW
LayerCount: 2
Fore
SplineSet
41 850 m 0,0,1
 24 867 24 867 24 892 c 128,-1,2
 24 917 24 917 41.5 934 c 128,-1,3
 59 951 59 951 84 951 c 128,-1,4
 109 951 109 951 126 934 c 128,-1,5
 143 917 143 917 143 892 c 128,-1,6
 143 867 143 867 126 850 c 128,-1,7
 109 833 109 833 84 833 c 128,-1,8
 59 833 59 833 41 850 c 0,0,1
227 850 m 0,9,10
 210 867 210 867 210 892 c 128,-1,11
 210 917 210 917 227.5 934 c 128,-1,12
 245 951 245 951 270 951 c 128,-1,13
 295 951 295 951 311.5 934 c 128,-1,14
 328 917 328 917 328 892 c 128,-1,15
 328 867 328 867 311.5 850 c 128,-1,16
 295 833 295 833 270 833 c 128,-1,17
 245 833 245 833 227 850 c 0,9,10
EndSplineSet
EndChar

StartChar: tilde.case
Encoding: 65545 -1 169
Width: 458
GlyphClass: 2
Flags: HMW
LayerCount: 2
Fore
SplineSet
331.5 834 m 0,0,1
 308 822 308 822 275 822 c 128,-1,2
 242 822 242 822 197 857.5 c 128,-1,3
 152 893 152 893 126 893 c 0,4,5
 88 893 88 893 70 844 c 1,6,-1
 42 848 l 1,7,8
 59.0426829268 916.170731707 59.0426829268 916.170731707 115.5 945 c 0,9,10
 139 957 139 957 168 957 c 128,-1,11
 197 957 197 957 224 939.5 c 128,-1,12
 251 922 251 922 275 904 c 128,-1,13
 299 886 299 886 321 886 c 0,14,15
 361 886 361 886 377 935 c 1,16,-1
 405 931 l 1,17,18
 387.957317073 862.829268293 387.957317073 862.829268293 331.5 834 c 0,0,1
EndSplineSet
EndChar

StartChar: ring.case
Encoding: 65546 -1 170
Width: 238
GlyphClass: 2
Flags: HMW
LayerCount: 2
Fore
SplineSet
52 826 m 256,0,1
 24 854 24 854 24 893 c 128,-1,2
 24 932 24 932 52 960 c 128,-1,3
 80 988 80 988 119 988 c 128,-1,4
 158 988 158 988 186 960 c 128,-1,5
 214 932 214 932 214 893 c 128,-1,6
 214 854 214 854 186 826 c 128,-1,7
 158 798 158 798 119 798 c 128,-1,8
 80 798 80 798 52 826 c 256,0,1
119 955 m 128,-1,10
 94 955 94 955 75.5 936.5 c 128,-1,11
 57 918 57 918 57 893 c 128,-1,12
 57 868 57 868 75.5 849.5 c 128,-1,13
 94 831 94 831 119 831 c 128,-1,14
 144 831 144 831 163 849.5 c 128,-1,15
 182 868 182 868 182 893 c 128,-1,16
 182 918 182 918 163 936.5 c 128,-1,9
 144 955 144 955 119 955 c 128,-1,10
EndSplineSet
EndChar

StartChar: caron.case
Encoding: 65547 -1 171
Width: 343
GlyphClass: 2
Flags: HMW
LayerCount: 2
Fore
SplineSet
24 959 m 1,0,-1
 171 890 l 1,1,-1
 319 959 l 1,2,-1
 329 943 l 1,3,-1
 201 822 l 1,4,-1
 142 822 l 1,5,-1
 15 943 l 1,6,-1
 24 959 l 1,0,-1
EndSplineSet
EndChar

StartChar: Ccedilla
Encoding: 199 199 178
Width: 740
GlyphClass: 2
Flags: HMW
LayerCount: 2
Fore
SplineSet
654 820 m 1,0,-1
 675 820 l 1,1,-1
 675 572 l 1,2,-1
 654 572 l 1,3,-1
 592 727 l 1,4,5
 515 797 515 797 414 797 c 128,-1,6
 313 797 313 797 247.5 716 c 128,-1,7
 182 635 182 635 182 492 c 2,8,-1
 182 309 l 2,9,10
 182 165 182 165 245 84 c 128,-1,11
 308 3 308 3 414 3 c 0,12,13
 465 3 465 3 516 25.5 c 128,-1,14
 567 48 567 48 601 86 c 1,15,-1
 659 247 l 1,16,-1
 680 247 l 1,17,-1
 680 -10 l 1,18,-1
 659 -10 l 1,19,-1
 587 41 l 1,20,21
 510 -20 510 -20 414 -20 c 2,22,-1
 407 -20 l 1,23,-1
 399 -54 l 1,24,25
 521 -59 521 -59 521 -146 c 0,26,27
 521 -194 521 -194 484.5 -218 c 128,-1,28
 448 -242 448 -242 401 -242 c 128,-1,29
 354 -242 354 -242 323 -233 c 1,30,-1
 329 -211 l 1,31,32
 341 -214 341 -214 365.5 -214 c 128,-1,33
 390 -214 390 -214 413 -198 c 128,-1,34
 436 -182 436 -182 436 -151 c 0,35,36
 436 -87 436 -87 364 -79 c 1,37,-1
 380 -18 l 1,38,39
 230 -6 230 -6 141 108 c 128,-1,40
 52 222 52 222 52 405 c 128,-1,41
 52 588 52 588 153 704 c 128,-1,42
 254 820 254 820 419 820 c 0,43,44
 509 820 509 820 587 763 c 1,45,-1
 654 820 l 1,0,-1
EndSplineSet
EndChar

StartChar: ccedilla
Encoding: 231 231 179
Width: 543
Flags: HMW
LayerCount: 2
Fore
SplineSet
381 369 m 1,0,1
 408 388.8 408 388.8 408 423.4 c 128,-1,2
 408 458 408 458 379 481.5 c 128,-1,3
 350 505 350 505 300 505 c 0,4,5
 228 505 228 505 189.5 453.5 c 128,-1,6
 151 402 151 402 151 309 c 2,7,-1
 151 209 l 2,8,9
 151 70.9285714286 151 70.9285714286 233 27 c 0,10,11
 261 12 261 12 297.5 12 c 128,-1,12
 334 12 334 12 364 22 c 128,-1,13
 394 32 394 32 418 50.5 c 0,14,15
 469.397260274 90.1187214612 469.397260274 90.1187214612 481 152 c 1,16,-1
 504 152 l 1,17,18
 490 80 490 80 439 37.5 c 128,-1,19
 388 -5 388 -5 314 -9 c 1,20,-1
 306 -44 l 1,21,22
 359 -46 359 -46 393.5 -67.5 c 128,-1,23
 428 -89 428 -89 428 -136 c 0,24,25
 428 -183.542857143 428 -183.542857143 388.5 -209.5 c 0,26,27
 354.260869565 -232 354.260869565 -232 307.630434783 -232 c 128,-1,28
 261 -232 261 -232 230 -223 c 1,29,-1
 236 -201 l 1,30,31
 248 -204 248 -204 263.5 -204 c 128,-1,32
 279 -204 279 -204 293 -200.5 c 128,-1,33
 307 -197 307 -197 318 -189 c 0,34,35
 343 -170.818181818 343 -170.818181818 343 -140.909090909 c 0,36,37
 343 -76.5789473684 343 -76.5789473684 271 -69 c 1,38,-1
 287 -10 l 1,39,40
 181.200356189 -3.77649154052 181.200356189 -3.77649154052 112.5 68 c 0,41,42
 41 142.701492537 41 142.701492537 41 259 c 0,43,44
 41 382.444444444 41 382.444444444 121 458 c 0,45,46
 194.058823529 527 194.058823529 527 300 527 c 0,47,48
 385.8 527 385.8 527 446 484 c 128,-1,49
 506 441.142857143 506 441.142857143 506 374 c 0,50,51
 506 339 506 339 488 322.5 c 128,-1,52
 470 306 470 306 443.5 306 c 128,-1,53
 417 306 417 306 399 324 c 128,-1,54
 381 342 381 342 381 369 c 1,0,1
EndSplineSet
EndChar

StartChar: oslash
Encoding: 248 248 180
Width: 600
GlyphClass: 2
Flags: HMW
LayerCount: 2
Fore
SplineSet
41 259 m 0,0,1
 41 379 41 379 115.5 453 c 128,-1,2
 190 527 190 527 300 527 c 0,3,4
 347 527 347 527 393 511 c 1,5,-1
 433 601 l 1,6,-1
 473 601 l 1,7,-1
 427 496 l 1,8,9
 488 463 488 463 523.5 401.5 c 128,-1,10
 559 340 559 340 559 259 c 0,11,12
 559 139 559 139 484.5 64.5 c 128,-1,13
 410 -10 410 -10 300 -10 c 0,14,15
 249 -10 249 -10 204 7 c 1,16,-1
 168 -74 l 1,17,-1
 128 -74 l 1,18,-1
 171 22 l 1,19,20
 111 55 111 55 76 116.5 c 128,-1,21
 41 178 41 178 41 259 c 0,0,1
449 209 m 2,22,-1
 449 309 l 2,23,24
 449 407 449 407 407 458 c 1,25,-1
 219 35 l 1,26,27
 253 12 253 12 300 12 c 0,28,29
 374 12 374 12 411.5 66 c 128,-1,30
 449 120 449 120 449 209 c 2,22,-1
151 209 m 2,31,32
 151 115 151 115 191 62 c 1,33,-1
 378 484 l 1,34,35
 344 505 344 505 300 505 c 0,36,37
 226 505 226 505 188.5 451.5 c 128,-1,38
 151 398 151 398 151 309 c 2,39,-1
 151 209 l 2,31,32
EndSplineSet
EndChar

StartChar: cent
Encoding: 162 162 181
Width: 547
GlyphClass: 2
Flags: HMW
LayerCount: 2
Fore
SplineSet
311 662 m 1,0,-1
 311 527 l 1,1,2
 396 525 396 525 452.5 482 c 128,-1,3
 509 439 509 439 509 374 c 0,4,5
 509 341 509 341 492 323.5 c 128,-1,6
 475 306 475 306 447.5 306 c 0,7,8
 420 306 420 306 402 324 c 128,-1,9
 384 342 384 342 384 369 c 1,10,11
 412 388 412 388 412 422 c 0,12,13
 412 456 412 456 384.5 479.5 c 128,-1,14
 357 503 357 503 311 505 c 1,15,-1
 311 12 l 1,16,17
 377 14 377 14 424.5 52.5 c 128,-1,18
 472 91 472 91 485 152 c 1,19,-1
 508 152 l 1,20,21
 493 79 493 79 440 35.5 c 128,-1,22
 387 -8 387 -8 311 -10 c 1,23,-1
 311 -143 l 1,24,-1
 275 -143 l 1,25,-1
 275 -8 l 1,26,27
 175 1 175 1 110 74 c 128,-1,28
 45 147 45 147 45 260.5 c 0,29,30
 45 374 45 374 112 444.5 c 128,-1,31
 179 515 179 515 275 525 c 1,32,-1
 275 662 l 1,33,-1
 311 662 l 1,0,-1
155 209 m 2,34,35
 155 129 155 129 185 76.5 c 128,-1,36
 215 24 215 24 275 14 c 1,37,-1
 275 503 l 1,38,39
 217 493 217 493 186 442.5 c 128,-1,40
 155 392 155 392 155 309 c 2,41,-1
 155 209 l 2,34,35
EndSplineSet
EndChar

StartChar: Eth
Encoding: 208 208 182
Width: 854
GlyphClass: 2
Flags: HMW
LayerCount: 2
Fore
SplineSet
54 375 m 1,0,-1
 54 408 l 1,1,-1
 130 408 l 1,2,-1
 130 764 l 1,3,-1
 38 778 l 1,4,-1
 38 800 l 1,5,-1
 421 800 l 2,6,7
 503 800 503 800 572.5 771 c 128,-1,8
 642 742 642 742 692 689.5 c 0,9,10
 798 578.2 798 578.2 798 400 c 256,11,12
 798 219.75 798 219.75 693 109.5 c 0,13,14
 588.714285714 -5.68434188608e-14 588.714285714 -5.68434188608e-14 421 0 c 2,15,-1
 38 0 l 1,16,-1
 38 21 l 1,17,-1
 130 36 l 1,18,-1
 130 375 l 1,19,-1
 54 375 l 1,0,-1
421 775 m 2,20,-1
 240 775 l 1,21,-1
 240 408 l 1,22,-1
 424 408 l 1,23,-1
 424 375 l 1,24,-1
 240 375 l 1,25,-1
 240 24 l 1,26,-1
 425 24 l 1,27,28
 535 26 535 26 603 103.5 c 128,-1,29
 671 181 671 181 671 323 c 2,30,-1
 671 477 l 2,31,32
 671 621 671 621 602 698 c 128,-1,33
 533 775 533 775 421 775 c 2,20,-1
EndSplineSet
EndChar

StartChar: ae
Encoding: 230 230 183
Width: 874
GlyphClass: 2
Flags: HMW
LayerCount: 2
Fore
SplineSet
507.5 66.5 m 128,-1,1
 547 12 547 12 619 12 c 128,-1,2
 691 12 691 12 744 51 c 128,-1,3
 797 90 797 90 809 152 c 1,4,-1
 832 152 l 1,5,6
 818 78 818 78 761 34 c 128,-1,7
 704 -10 704 -10 622 -10 c 128,-1,8
 540 -10 540 -10 474.5 29.5 c 128,-1,9
 409 69 409 69 381 138 c 1,10,11
 326 -10 326 -10 178 -10 c 0,12,13
 117 -10 117 -10 77 24 c 128,-1,14
 37 58 37 58 37 115.5 c 128,-1,15
 37 173 37 173 62 208.5 c 128,-1,16
 87 244 87 244 131 263 c 0,17,18
 212.052631579 298 212.052631579 298 329 298 c 2,19,-1
 366 298 l 1,20,-1
 366 393 l 2,21,22
 366 505 366 505 264 505 c 0,23,24
 219 505 219 505 190 484 c 128,-1,25
 161 463 161 463 161 435.5 c 128,-1,26
 161 408 161 408 189 399 c 1,27,28
 189 374 189 374 170 355 c 128,-1,29
 151 336 151 336 125 336 c 128,-1,30
 99 336 99 336 81 354.5 c 128,-1,31
 63 373 63 373 63 399 c 0,32,33
 63 456 63 456 122 491.5 c 128,-1,34
 181 527 181 527 264 527 c 0,35,36
 396 527 396 527 441 461 c 1,37,38
 512 527 512 527 612 527 c 128,-1,39
 712 527 712 527 773 466 c 128,-1,40
 834 405 834 405 836 308 c 1,41,-1
 468 308 l 1,42,-1
 468 209 l 2,43,0
 468 121 468 121 507.5 66.5 c 128,-1,1
228 37 m 0,44,45
 281 37 281 37 323.5 82.5 c 128,-1,46
 366 128 366 128 366 191 c 2,47,-1
 366 273 l 1,48,-1
 329 273 l 2,49,50
 251 273 251 273 198.5 236 c 128,-1,51
 146 199 146 199 146 123 c 0,52,53
 146 83 146 83 168 60 c 128,-1,54
 190 37 190 37 228 37 c 0,44,45
616 505 m 0,55,56
 549 505 549 505 511.5 458.5 c 128,-1,57
 474 412 474 412 469 333 c 1,58,-1
 727 333 l 1,59,60
 727 505 727 505 616 505 c 0,55,56
EndSplineSet
EndChar

StartChar: oe
Encoding: 339 339 184
Width: 966
GlyphClass: 2
Flags: HMW
LayerCount: 2
Fore
SplineSet
711 12 m 0,0,1
 747 12 747 12 778.5 22.5 c 128,-1,2
 810 33 810 33 835 51.5 c 0,3,4
 888.162650602 90.8403614458 888.162650602 90.8403614458 900 152 c 1,5,-1
 923 152 l 1,6,7
 909 77 909 77 852 33.5 c 128,-1,8
 795 -10 795 -10 713 -10 c 0,9,10
 581 -10 581 -10 504 88 c 1,11,12
 469 40 469 40 416 15 c 128,-1,13
 363 -10 363 -10 304 -10 c 128,-1,14
 245 -10 245 -10 198 9.5 c 128,-1,15
 151 29 151 29 116 64.5 c 0,16,17
 41 140.571428571 41 140.571428571 41 259 c 256,18,19
 41 377.428571429 41 377.428571429 116 453.5 c 0,20,21
 188.464788732 527 188.464788732 527 300 527 c 0,22,23
 429 527 429 527 504 430 c 1,24,25
 577 527 577 527 708 527 c 0,26,27
 802.448275862 527 802.448275862 527 864.5 466 c 0,28,29
 925.967195386 405.574621485 925.967195386 405.574621485 928 308 c 1,30,-1
 560 308 l 1,31,-1
 560 209 l 2,32,33
 560 120.368421053 560 120.368421053 599 67 c 0,34,35
 639.192307692 12 639.192307692 12 711 12 c 0,0,1
449 209 m 2,36,-1
 449 309 l 2,37,38
 449 398 449 398 411.5 451.5 c 128,-1,39
 374 505 374 505 300 505 c 128,-1,40
 226 505 226 505 188.5 451.5 c 128,-1,41
 151 398 151 398 151 309 c 2,42,-1
 151 209 l 2,43,44
 151 120 151 120 188.5 66 c 128,-1,45
 226 12 226 12 300 12 c 128,-1,46
 374 12 374 12 411.5 66 c 128,-1,47
 449 120 449 120 449 209 c 2,36,-1
707 505 m 0,48,49
 640 505 640 505 603 458 c 128,-1,50
 566 411 566 411 561 333 c 1,51,-1
 818 333 l 1,52,53
 818 505 818 505 707 505 c 0,48,49
EndSplineSet
EndChar

StartChar: OE
Encoding: 338 338 185
Width: 1233
GlyphClass: 2
Flags: HMW
LayerCount: 2
Fore
SplineSet
954 560 m 1,0,-1
 980 560 l 1,1,-1
 980 244 l 1,2,-1
 954 244 l 1,3,-1
 894 391 l 1,4,-1
 777 391 l 1,5,-1
 777 24 l 1,6,-1
 1071 24 l 1,7,-1
 1153 244 l 1,8,-1
 1179 244 l 1,9,-1
 1179 0 l 1,10,-1
 678 0 l 1,11,-1
 678 91 l 1,12,13
 587 -20 587 -20 424.5 -20 c 128,-1,14
 262 -20 262 -20 156.5 97 c 128,-1,15
 51 214 51 214 51 400.5 c 128,-1,16
 51 587 51 587 156.5 703.5 c 128,-1,17
 262 820 262 820 424 820 c 128,-1,18
 586 820 586 820 678 709 c 1,19,-1
 678 800 l 1,20,-1
 1157 800 l 1,21,-1
 1157 571 l 1,22,-1
 1130 571 l 1,23,-1
 1053 775 l 1,24,-1
 777 775 l 1,25,-1
 777 415 l 1,26,-1
 894 415 l 1,27,-1
 954 560 l 1,0,-1
248 88 m 128,-1,29
 317 3 317 3 427.5 3 c 128,-1,30
 538 3 538 3 602.5 87.5 c 128,-1,31
 667 172 667 172 667 323 c 2,32,-1
 667 477 l 2,33,34
 667 628 667 628 602.5 712.5 c 128,-1,35
 538 797 538 797 427.5 797 c 128,-1,36
 317 797 317 797 248 712 c 128,-1,37
 179 627 179 627 179 477 c 2,38,-1
 179 323 l 2,39,28
 179 173 179 173 248 88 c 128,-1,29
EndSplineSet
EndChar

StartChar: dollar
Encoding: 36 36 186
Width: 657
GlyphClass: 2
Flags: HMW
LayerCount: 2
Fore
SplineSet
355 -20 m 1,0,-1
 341 -19 l 1,1,-1
 341 -105 l 1,2,-1
 324 -105 l 1,3,-1
 324 -18 l 1,4,5
 245 -11 245 -11 172 33 c 1,6,-1
 87 -10 l 1,7,-1
 65 -10 l 1,8,-1
 65 247 l 1,9,-1
 87 247 l 1,10,-1
 173 61 l 1,11,12
 242 13 242 13 324 4 c 1,13,-1
 324 359 l 1,14,-1
 243 380 l 2,15,16
 156 403 156 403 112 456.5 c 128,-1,17
 68 510 68 510 68 585 c 0,18,19
 68 691 68 691 130 755.5 c 128,-1,20
 192 820 192 820 302 820 c 0,21,22
 316 820 316 820 324 819 c 1,23,-1
 324 895 l 1,24,-1
 341 895 l 1,25,-1
 341 818 l 1,26,27
 346 818 346 818 360 816 c 1,28,-1
 360 895 l 1,29,-1
 376 895 l 1,30,-1
 376 814 l 1,31,32
 423 806 423 806 465 789 c 1,33,-1
 538 820 l 1,34,-1
 560 820 l 1,35,-1
 560 616 l 1,36,-1
 538 616 l 1,37,-1
 466 762 l 1,38,39
 424 782 424 782 376 791 c 1,40,-1
 376 467 l 1,41,-1
 435 452 l 2,42,43
 523 429 523 429 565 377.5 c 128,-1,44
 607 326 607 326 607 218.5 c 128,-1,45
 607 111 607 111 544.5 48.5 c 128,-1,46
 482 -14 482 -14 376 -19 c 1,47,-1
 376 -105 l 1,48,-1
 360 -105 l 1,49,-1
 360 -20 l 1,50,-1
 355 -20 l 1,0,-1
116 636 m 0,51,52
 116 535 116 535 256 499 c 1,53,-1
 324 481 l 1,54,-1
 324 797 l 1,55,56
 317 798 317 798 303 798 c 0,57,58
 216 798 216 798 166 753.5 c 128,-1,59
 116 709 116 709 116 636 c 0,51,52
409 337 m 1,60,-1
 376 345 l 1,61,-1
 376 2 l 1,62,63
 460 6 460 6 513 52 c 128,-1,64
 566 98 566 98 566 179 c 0,65,66
 566 241 566 241 528.5 278.5 c 128,-1,67
 491 316 491 316 409 337 c 1,60,-1
341 3 m 1,68,69
 347 2 347 2 360 2 c 1,70,-1
 360 349 l 1,71,-1
 341 354 l 1,72,-1
 341 3 l 1,68,69
360 794 m 1,73,-1
 341 796 l 1,74,-1
 341 476 l 1,75,-1
 360 471 l 1,76,-1
 360 794 l 1,73,-1
EndSplineSet
EndChar

StartChar: yen
Encoding: 165 165 187
Width: 775
GlyphClass: 2
Flags: HMW
LayerCount: 2
Fore
SplineSet
189 344 m 1,0,-1
 189 382 l 1,1,-1
 327 382 l 1,2,-1
 109 764 l 1,3,-1
 30 778 l 1,4,-1
 30 800 l 1,5,-1
 331 800 l 1,6,-1
 331 778 l 1,7,-1
 238 764 l 1,8,-1
 448 401 l 1,9,-1
 641 730 l 1,10,-1
 521 778 l 1,11,-1
 521 800 l 1,12,-1
 745 800 l 1,13,-1
 745 778 l 1,14,-1
 668 729 l 1,15,-1
 465 382 l 1,16,-1
 618 382 l 1,17,-1
 618 344 l 1,18,-1
 460 344 l 1,19,-1
 460 275 l 1,20,-1
 618 275 l 1,21,-1
 618 237 l 1,22,-1
 460 237 l 1,23,-1
 460 36 l 1,24,-1
 553 21 l 1,25,-1
 553 0 l 1,26,-1
 259 0 l 1,27,-1
 259 21 l 1,28,-1
 352 36 l 1,29,-1
 352 237 l 1,30,-1
 189 237 l 1,31,-1
 189 275 l 1,32,-1
 352 275 l 1,33,-1
 352 340 l 1,34,-1
 349 344 l 1,35,-1
 189 344 l 1,0,-1
EndSplineSet
EndChar

StartChar: Euro
Encoding: 8364 8364 188
Width: 807
GlyphClass: 2
Flags: HMW
LayerCount: 2
Fore
SplineSet
709 820 m 1,0,-1
 730 820 l 1,1,-1
 730 572 l 1,2,-1
 709 572 l 1,3,-1
 647 727 l 1,4,5
 570 797 570 797 469 797 c 0,6,7
 368 797 368 797 302.5 716 c 128,-1,8
 237 635 237 635 237 492 c 2,9,-1
 237 469 l 1,10,-1
 504 469 l 1,11,-1
 489 431 l 1,12,-1
 237 431 l 1,13,-1
 237 352 l 1,14,-1
 458 352 l 1,15,-1
 443 314 l 1,16,-1
 237 314 l 1,17,-1
 237 309 l 2,18,19
 237 165 237 165 300 84 c 128,-1,20
 363 3 363 3 469 3 c 0,21,22
 520 3 520 3 571 25.5 c 128,-1,23
 622 48 622 48 656 86 c 1,24,-1
 714 247 l 1,25,-1
 735 247 l 1,26,-1
 735 -10 l 1,27,-1
 714 -10 l 1,28,-1
 642 41 l 1,29,30
 565 -20 565 -20 469 -20 c 0,31,32
 324 -20 324 -20 229.5 70.5 c 128,-1,33
 135 161 135 161 113 314 c 1,34,-1
 35 314 l 1,35,-1
 35 352 l 1,36,-1
 109 352 l 1,37,38
 107 382 107 382 107 401.5 c 0,39,40
 107 421 107 421 108 431 c 1,41,-1
 35 431 l 1,42,-1
 35 469 l 1,43,-1
 111 469 l 1,44,45
 129 629 129 629 227 724.5 c 128,-1,46
 325 820 325 820 474 820 c 0,47,48
 564 820 564 820 642 763 c 1,49,-1
 709 820 l 1,0,-1
EndSplineSet
EndChar

StartChar: AE
Encoding: 198 198 189
Width: 1113
GlyphClass: 2
Flags: HMW
LayerCount: 2
Fore
SplineSet
831 560 m 1,0,-1
 858 560 l 1,1,-1
 858 244 l 1,2,-1
 831 244 l 1,3,-1
 772 391 l 1,4,-1
 652 391 l 1,5,-1
 652 24 l 1,6,-1
 951 24 l 1,7,-1
 1033 244 l 1,8,-1
 1060 244 l 1,9,-1
 1060 0 l 1,10,-1
 543 0 l 1,11,-1
 543 309 l 1,12,-1
 251 309 l 1,13,-1
 87 60 l 1,14,-1
 176 21 l 1,15,-1
 176 0 l 1,16,-1
 -38 0 l 1,17,-1
 -38 21 l 1,18,-1
 57 60 l 1,19,-1
 519 764 l 1,20,-1
 434 778 l 1,21,-1
 434 800 l 1,22,-1
 1037 800 l 1,23,-1
 1037 571 l 1,24,-1
 1010 571 l 1,25,-1
 933 775 l 1,26,-1
 652 775 l 1,27,-1
 652 415 l 1,28,-1
 772 415 l 1,29,-1
 831 560 l 1,0,-1
265 330 m 1,30,-1
 543 330 l 1,31,-1
 543 751 l 1,32,-1
 265 330 l 1,30,-1
EndSplineSet
EndChar

StartChar: one
Encoding: 49 49 190
Width: 340
GlyphClass: 2
Flags: HMW
LayerCount: 2
Fore
SplineSet
52 780 m 1,0,-1
 52 800 l 1,1,-1
 222 800 l 1,2,-1
 222 30 l 1,3,-1
 292 20 l 1,4,-1
 292 0 l 1,5,-1
 52 0 l 1,6,-1
 52 20 l 1,7,-1
 122 30 l 1,8,-1
 122 770 l 1,9,-1
 52 780 l 1,0,-1
EndSplineSet
EndChar

StartChar: two
Encoding: 50 50 191
Width: 608
GlyphClass: 2
Flags: HMW
LayerCount: 2
Fore
SplineSet
539 253 m 1,0,-1
 539 0 l 1,1,-1
 36 0 l 1,2,-1
 36 77 l 1,3,-1
 247 292 l 2,4,5
 417 464 417 464 417 630.5 c 128,-1,6
 417 797 417 797 278 797 c 0,7,8
 228 797 228 797 191 770 c 128,-1,9
 154 743 154 743 154 694.5 c 128,-1,10
 154 646 154 646 207 620 c 1,11,12
 207 584 207 584 185 565 c 128,-1,13
 163 546 163 546 132 546 c 128,-1,14
 101 546 101 546 78 569.5 c 128,-1,15
 55 593 55 593 55 634 c 0,16,17
 55 715 55 715 126 767.5 c 128,-1,18
 197 820 197 820 294 820 c 0,19,20
 417 820 417 820 475.5 762 c 128,-1,21
 534 704 534 704 534 611 c 0,22,23
 534 509.532467532 534 509.532467532 456.5 427 c 0,24,25
 418 386 418 386 338 316 c 2,26,-1
 99 105 l 1,27,-1
 472 105 l 1,28,-1
 513 253 l 1,29,-1
 539 253 l 1,0,-1
EndSplineSet
EndChar

StartChar: three
Encoding: 51 51 192
Width: 615
GlyphClass: 2
Flags: HMW
LayerCount: 2
Fore
SplineSet
190 435 m 1,0,-1
 190 457 l 1,1,2
 295 463 295 463 353.5 513.5 c 128,-1,3
 412 564 412 564 412 650 c 0,4,5
 412 717 412 717 375.5 757 c 128,-1,6
 339 797 339 797 281 797 c 0,7,8
 223 797 223 797 191.5 778.5 c 128,-1,9
 160 760 160 760 160 727 c 0,10,11
 160 674 160 674 210 651 c 1,12,13
 210 616 210 616 189.5 598 c 128,-1,14
 169 580 169 580 139.5 580 c 0,15,16
 110 580 110 580 88 603 c 128,-1,17
 66 626 66 626 66 664 c 0,18,19
 66 731 66 731 132.5 775.5 c 128,-1,20
 199 820 199 820 301 820 c 0,21,22
 403 820 403 820 467 774 c 128,-1,23
 531 728 531 728 531 645 c 0,24,25
 531 479 531 479 287 447 c 1,26,-1
 287 444 l 1,27,28
 412 438 412 438 488.5 377.5 c 128,-1,29
 565 317 565 317 565 214.5 c 0,30,31
 565 112 565 112 487.5 46 c 128,-1,32
 410 -20 410 -20 265 -20 c 0,33,34
 171 -20 171 -20 105.5 32 c 128,-1,35
 40 84 40 84 40 161 c 0,36,37
 40 202 40 202 63 225.5 c 128,-1,38
 86 249 86 249 117 249 c 0,39,40
 148 249 148 249 170 230 c 128,-1,41
 192 211 192 211 192 175 c 1,42,43
 139 149 139 149 139 95 c 0,44,45
 139 54 139 54 173.5 28.5 c 128,-1,46
 208 3 208 3 272.5 3 c 0,47,48
 337 3 337 3 382 57 c 128,-1,49
 427 111 427 111 427 208 c 0,50,51
 427 420 427 420 190 435 c 1,0,-1
EndSplineSet
EndChar

StartChar: five
Encoding: 53 53 193
Width: 603
GlyphClass: 2
Flags: HMW
LayerCount: 2
Fore
SplineSet
126 453 m 1,0,-1
 108 466 l 1,1,-1
 152 800 l 1,2,-1
 417 800 l 2,3,4
 477 800 477 800 504.5 809.5 c 128,-1,5
 532 819 532 819 542 854 c 1,6,-1
 565 853 l 1,7,8
 557 756 557 756 516.5 719.5 c 128,-1,9
 476 683 476 683 402 683 c 2,10,-1
 163 683 l 1,11,-1
 137 484 l 1,12,13
 187 498 187 498 242 498 c 0,14,15
 377 498 377 498 463.5 421.5 c 128,-1,16
 550 345 550 345 550 232 c 0,17,18
 550 138.043478261 550 138.043478261 480.5 62.5 c 0,19,20
 446 25 446 25 386 2.5 c 128,-1,21
 326 -20 326 -20 241 -20 c 128,-1,22
 156 -20 156 -20 90.5 32 c 128,-1,23
 25 84 25 84 25 161 c 0,24,25
 25 202 25 202 48 225.5 c 128,-1,26
 71 249 71 249 102 249 c 128,-1,27
 133 249 133 249 155 230 c 128,-1,28
 177 211 177 211 177 175 c 1,29,30
 124 149 124 149 124 95 c 0,31,32
 124 54 124 54 158.5 28.5 c 128,-1,33
 193 3 193 3 250 3 c 0,34,35
 325 3 325 3 368.5 67 c 128,-1,36
 412 131 412 131 412 241 c 128,-1,37
 412 351 412 351 360.5 410.5 c 128,-1,38
 309 470 309 470 224 470 c 0,39,40
 179 470 179 470 126 453 c 1,0,-1
EndSplineSet
EndChar

StartChar: eight
Encoding: 56 56 194
Width: 643
GlyphClass: 2
Flags: HMW
LayerCount: 2
Fore
SplineSet
51 188 m 0,0,1
 51 312.285714286 51 312.285714286 167 391 c 0,2,3
 195 410 195 410 236 431 c 1,4,-1
 190 461 l 1,5,6
 82 537 82 537 82 626 c 128,-1,7
 82 715 82 715 153.5 767.5 c 128,-1,8
 225 820 225 820 320 820 c 128,-1,9
 415 820 415 820 482.5 775.5 c 128,-1,10
 550 731 550 731 550 652 c 0,11,12
 550 587 550 587 512 541 c 128,-1,13
 474 495 474 495 405 458 c 1,14,15
 481 411 481 411 512.5 384 c 128,-1,16
 544 357 544 357 569.5 312 c 128,-1,17
 595 267 595 267 595 214 c 0,18,19
 595 105 595 105 514 42.5 c 128,-1,20
 433 -20 433 -20 314 -20 c 128,-1,21
 195 -20 195 -20 123 34 c 128,-1,22
 51 88 51 88 51 188 c 0,0,1
374 342 m 1,23,-1
 265 412 l 1,24,25
 208 368 208 368 180.5 308 c 128,-1,26
 153 248 153 248 153 177 c 128,-1,27
 153 106 153 106 193.5 54.5 c 128,-1,28
 234 3 234 3 317 3 c 128,-1,29
 400 3 400 3 450 47.5 c 128,-1,30
 500 92 500 92 500 149 c 128,-1,31
 500 206 500 206 471.5 250.5 c 128,-1,32
 443 295 443 295 374 342 c 1,23,-1
214 764.5 m 128,-1,34
 171 732 171 732 171 686.5 c 128,-1,35
 171 641 171 641 196 608 c 128,-1,36
 221 575 221 575 271 542 c 1,37,-1
 377 475 l 1,38,39
 459 533 459 533 459 649 c 0,40,41
 459 714 459 714 419 755.5 c 128,-1,42
 379 797 379 797 318 797 c 128,-1,33
 257 797 257 797 214 764.5 c 128,-1,34
EndSplineSet
EndChar

StartChar: four
Encoding: 52 52 195
Width: 583
GlyphClass: 2
Flags: HMW
LayerCount: 2
Fore
SplineSet
0 192 m 1,0,-1
 0 213 l 1,1,-1
 424 800 l 1,2,-1
 447 800 l 1,3,-1
 447 239 l 1,4,-1
 539 239 l 1,5,-1
 539 192 l 1,6,-1
 447 192 l 1,7,-1
 447 36 l 1,8,-1
 539 21 l 1,9,-1
 539 0 l 1,10,-1
 245 0 l 1,11,-1
 245 21 l 1,12,-1
 337 36 l 1,13,-1
 337 192 l 1,14,-1
 0 192 l 1,0,-1
49 239 m 1,15,-1
 337 239 l 1,16,-1
 337 638 l 1,17,-1
 49 239 l 1,15,-1
EndSplineSet
EndChar

StartChar: seven
Encoding: 55 55 196
Width: 497
GlyphClass: 2
Flags: HMW
LayerCount: 2
Fore
SplineSet
276 0 m 1,0,-1
 139 0 l 1,1,2
 153.836431227 144.655204461 153.836431227 144.655204461 231 286.5 c 0,3,4
 265 349 265 349 298.5 408 c 0,5,6
 387.477190149 564.706096084 387.477190149 564.706096084 428 696 c 1,7,-1
 93 696 l 1,8,-1
 66 577 l 1,9,-1
 40 577 l 1,10,-1
 40 800 l 1,11,-1
 479 800 l 1,12,13
 467 697 467 697 436 584 c 128,-1,14
 405 471 405 471 373.5 388.5 c 128,-1,15
 342 306 342 306 313 199.5 c 128,-1,16
 284 93 284 93 276 0 c 1,0,-1
EndSplineSet
EndChar

StartChar: six
Encoding: 54 54 197
Width: 644
GlyphClass: 2
Flags: HMW
LayerCount: 2
Fore
SplineSet
181 535 m 1,0,-1
 180 423 l 1,1,2
 242 498 242 498 348.5 498 c 128,-1,3
 455 498 455 498 525 430.5 c 128,-1,4
 595 363 595 363 595 242.5 c 128,-1,5
 595 122 595 122 517 51 c 128,-1,6
 439 -20 439 -20 326 -20 c 0,7,8
 174.764705882 -20 174.764705882 -20 113 102.5 c 0,9,10
 57 213.566666667 57 213.566666667 57 412.783333333 c 128,-1,11
 57 612 57 612 135.5 716 c 128,-1,12
 214 820 214 820 352 820 c 0,13,14
 446 820 446 820 508 781.5 c 128,-1,15
 570 743 570 743 570 685 c 0,16,17
 570 651 570 651 548.5 627.5 c 128,-1,18
 527 604 527 604 497.5 604 c 128,-1,19
 468 604 468 604 450 619 c 128,-1,20
 432 634 432 634 432 660 c 1,21,22
 460 682 460 682 460 716 c 128,-1,23
 460 750 460 750 430 775 c 128,-1,24
 400 800 400 800 352 800 c 0,25,26
 182 800 182 800 181 535 c 1,0,-1
336 474 m 0,27,28
 287 474 287 474 245 447.5 c 128,-1,29
 203 421 203 421 180 375 c 1,30,-1
 179 236 l 2,31,32
 178.973509934 232.900662252 178.973509934 232.900662252 178.973509934 229.842375334 c 0,33,34
 178.973509934 2 178.973509934 2 326 2 c 0,35,36
 398 2 398 2 436.5 53 c 128,-1,37
 475 104 475 104 475 194 c 2,38,-1
 475 292 l 2,39,40
 475 379 475 379 440.5 426.5 c 128,-1,41
 406 474 406 474 336 474 c 0,27,28
EndSplineSet
EndChar

StartChar: nine
Encoding: 57 57 198
Width: 644
GlyphClass: 2
Flags: HMW
LayerCount: 2
Fore
SplineSet
292 0 m 0,0,1
 462 0 462 0 463 265 c 1,2,-1
 463 377 l 1,3,4
 403 302 403 302 296 302 c 128,-1,5
 189 302 189 302 119 369.5 c 128,-1,6
 49 437 49 437 49 557.5 c 128,-1,7
 49 678 49 678 127 749 c 128,-1,8
 205 820 205 820 318 820 c 0,9,10
 469.235294118 820 469.235294118 820 531 697.5 c 0,11,12
 587 586.433333333 587 586.433333333 587 387.216666667 c 128,-1,13
 587 188 587 188 508.5 84 c 128,-1,14
 430 -20 430 -20 292 -20 c 0,15,16
 198 -20 198 -20 136 18.5 c 128,-1,17
 74 57 74 57 74 115 c 0,18,19
 74 149 74 149 95.5 172.5 c 128,-1,20
 117 196 117 196 146.5 196 c 128,-1,21
 176 196 176 196 194 181 c 128,-1,22
 212 166 212 166 212 140 c 1,23,24
 184 118 184 118 184 84 c 128,-1,25
 184 50 184 50 214 25 c 128,-1,26
 244 0 244 0 292 0 c 0,0,1
308 326 m 0,27,28
 356 326 356 326 398.5 352.5 c 128,-1,29
 441 379 441 379 464 425 c 1,30,-1
 465 564 l 2,31,32
 465.026490066 567.099337748 465.026490066 567.099337748 465.026490066 570.157624666 c 0,33,34
 465.026490066 798 465.026490066 798 318 798 c 0,35,36
 246 798 246 798 207.5 747 c 128,-1,37
 169 696 169 696 169 606 c 2,38,-1
 169 508 l 2,39,40
 169 421 169 421 203.5 373.5 c 128,-1,41
 238 326 238 326 308 326 c 0,27,28
EndSplineSet
EndChar

StartChar: Oslash
Encoding: 216 216 199
Width: 856
GlyphClass: 2
Flags: HMW
LayerCount: 2
Fore
SplineSet
428 -20 m 0,0,1
 345 -20 345 -20 274 11 c 1,2,-1
 260 -22 l 1,3,-1
 218 -22 l 1,4,-1
 240 28 l 1,5,6
 151 80 151 80 101 177 c 128,-1,7
 51 274 51 274 51 400 c 0,8,9
 51 587 51 587 156.5 703.5 c 128,-1,10
 262 820 262 820 428 820 c 0,11,12
 511 820 511 820 585 787 c 1,13,-1
 601 822 l 1,14,-1
 642 822 l 1,15,-1
 618 769 l 1,16,17
 706 717 706 717 755.5 621 c 128,-1,18
 805 525 805 525 805 400 c 0,19,20
 805 214 805 214 699.5 97 c 128,-1,21
 594 -20 594 -20 428 -20 c 0,0,1
175 323 m 2,22,23
 175 155 175 155 263 69 c 1,24,-1
 566 753 l 1,25,26
 505 797 505 797 428 797 c 0,27,28
 317 797 317 797 246 711.5 c 128,-1,29
 175 626 175 626 175 477 c 2,30,-1
 175 323 l 2,22,23
428 3 m 0,31,32
 539 3 539 3 610 88.5 c 128,-1,33
 681 174 681 174 681 323 c 2,34,-1
 681 477 l 2,35,36
 681 639 681 639 595 727 c 1,37,-1
 292 44 l 1,38,39
 351 3 351 3 428 3 c 0,31,32
EndSplineSet
EndChar

StartChar: Aring
Encoding: 197 197 205
Width: 721
Flags: HMW
LayerCount: 2
Fore
SplineSet
302.5 950 m 128,-1,1
 330 978 330 978 369.5 978 c 128,-1,2
 409 978 409 978 436.5 950 c 128,-1,3
 464 922 464 922 464 883 c 128,-1,4
 464 844 464 844 439.5 819 c 128,-1,5
 415 794 415 794 386 789 c 1,6,-1
 649 36 l 1,7,-1
 741 21 l 1,8,-1
 741 0 l 1,9,-1
 447 0 l 1,10,-1
 447 21 l 1,11,-1
 529 34 l 1,12,-1
 444 271 l 1,13,-1
 178 271 l 1,14,-1
 97 61 l 1,15,-1
 187 21 l 1,16,-1
 187 0 l 1,17,-1
 -27 0 l 1,18,-1
 -27 21 l 1,19,-1
 71 61 l 1,20,-1
 348 790 l 1,21,22
 322 795 322 795 298.5 819.5 c 128,-1,23
 275 844 275 844 275 883 c 128,-1,0
 275 922 275 922 302.5 950 c 128,-1,1
317 644 m 1,24,-1
 186 292 l 1,25,-1
 437 292 l 1,26,-1
 317 644 l 1,24,-1
369 945 m 128,-1,28
 344 945 344 945 325.5 926.5 c 128,-1,29
 307 908 307 908 307 883 c 128,-1,30
 307 858 307 858 325.5 839.5 c 128,-1,31
 344 821 344 821 369 821 c 128,-1,32
 394 821 394 821 413 839.5 c 128,-1,33
 432 858 432 858 432 883 c 128,-1,34
 432 908 432 908 413 926.5 c 128,-1,27
 394 945 394 945 369 945 c 128,-1,28
EndSplineSet
EndChar

